<?xml version="1.0" standalone="no"?>
<!DOCTYPE svg PUBLIC "-//W3C//DTD SVG 20010904//EN"
 "http://www.w3.org/TR/2001/REC-SVG-20010904/DTD/svg10.dtd">
<svg version="1.0" xmlns="http://www.w3.org/2000/svg"
 width="512.000000pt" height="512.000000pt" viewBox="0 0 512.000000 512.000000"
 preserveAspectRatio="xMidYMid meet">

<g transform="translate(0.000000,512.000000) scale(0.100000,-0.100000)"
fill="#fff" stroke="none">
<path d="M3120 4860 c0 -147 -3 -180 -14 -180 -7 0 -48 60 -89 133 -42 72 -82
141 -90 151 -14 18 -27 12 -282 -135 -147 -85 -269 -159 -271 -164 -3 -6 34
-77 81 -159 84 -146 93 -166 76 -166 -5 0 -76 38 -157 86 -81 47 -152 83 -158
81 -6 -3 -80 -125 -165 -272 -147 -255 -153 -268 -135 -282 10 -8 79 -48 152
-90 72 -41 132 -82 132 -89 0 -11 -33 -14 -180 -14 l-180 0 0 -320 0 -320 180
0 c147 0 180 -3 180 -14 0 -7 -60 -48 -132 -89 -73 -42 -142 -82 -152 -90 -19
-14 -15 -22 87 -198 58 -101 105 -185 103 -186 -2 -2 -29 8 -60 22 -117 52
-209 69 -366 69 -204 0 -344 -39 -510 -142 -96 -59 -243 -206 -302 -302 -103
-166 -142 -306 -142 -510 0 -160 12 -227 65 -359 89 -224 288 -428 510 -522
284 -121 602 -100 871 58 112 65 266 219 329 328 101 174 133 294 133 495 0
157 -17 249 -69 366 -14 31 -24 58 -22 60 1 2 85 -45 186 -103 176 -102 184
-106 198 -87 8 10 48 79 90 152 41 72 82 132 89 132 11 0 14 -33 14 -180 l0
-180 159 0 159 0 5 -222 c3 -187 8 -236 26 -303 34 -126 89 -232 190 -365 19
-25 18 -30 -19 -400 -21 -206 -41 -396 -44 -422 l-5 -48 569 0 569 0 -5 48
c-3 26 -23 216 -44 422 -37 370 -38 375 -19 400 101 133 156 238 191 365 20
74 22 107 26 434 4 415 3 421 -72 496 -68 67 -158 93 -229 66 -22 -9 -26 -6
-43 31 -21 47 -94 114 -134 123 -37 8 -82 75 -51 75 5 0 76 -38 157 -85 82
-47 153 -84 159 -81 5 2 79 124 164 271 146 255 153 269 135 282 -10 8 -79 48
-151 90 -73 41 -133 82 -133 89 0 11 33 14 180 14 l180 0 0 320 0 320 -180 0
c-140 0 -180 3 -180 13 0 7 60 47 133 89 72 43 141 83 151 91 18 14 12 27
-135 282 -85 147 -159 269 -164 271 -6 3 -77 -34 -159 -81 -147 -85 -166 -93
-166 -76 0 5 38 76 85 157 47 82 84 153 82 159 -3 5 -125 79 -272 164 -256
147 -268 154 -282 135 -8 -10 -48 -79 -90 -151 -41 -73 -82 -133 -89 -133 -11
0 -14 33 -14 180 l0 180 -320 0 -320 0 0 -180z m480 -92 c0 -93 4 -119 21
-155 40 -82 150 -117 236 -76 36 17 80 75 133 176 14 26 29 47 34 47 4 0 68
-34 142 -76 l134 -76 -19 -32 c-98 -164 -96 -159 -96 -223 0 -53 4 -66 30 -99
72 -89 152 -96 275 -24 41 24 84 49 96 57 19 12 24 6 97 -120 42 -74 77 -138
77 -143 0 -5 -21 -20 -47 -34 -155 -82 -193 -125 -193 -217 0 -66 33 -120 89
-150 39 -20 58 -23 158 -23 l113 0 0 -160 0 -160 -113 0 c-100 0 -119 -3 -158
-23 -56 -30 -89 -84 -89 -150 0 -92 38 -135 193 -217 26 -14 47 -29 47 -34 0
-5 -35 -69 -77 -142 l-76 -134 -31 19 c-181 108 -224 120 -294 83 l-40 -21 -4
62 c-2 34 -11 77 -21 96 -16 33 -16 34 14 78 218 316 223 739 13 1066 -63 98
-200 231 -303 295 -313 192 -712 187 -1024 -14 -94 -60 -231 -199 -289 -294
-53 -86 -100 -196 -125 -296 -24 -95 -24 -333 0 -428 46 -182 128 -328 261
-462 134 -133 279 -215 462 -261 105 -26 333 -24 441 5 45 12 84 22 87 22 3 0
6 -93 6 -206 0 -192 -1 -206 -17 -199 -47 19 -109 35 -140 35 -74 0 -146 -57
-159 -125 l-6 -35 -79 0 -79 0 0 112 c0 93 -4 119 -21 155 -40 82 -150 117
-236 76 -36 -17 -80 -75 -133 -176 -14 -26 -29 -47 -34 -47 -5 0 -69 34 -142
76 l-133 77 30 51 c77 132 91 168 87 218 -9 92 -92 163 -183 155 -47 -4 -72
-15 -211 -98 l-31 -19 -76 134 c-42 73 -77 137 -77 142 0 5 21 20 47 34 155
82 193 125 193 217 0 66 -33 120 -89 150 -39 20 -58 23 -158 23 l-113 0 0 160
0 160 112 0 c93 0 119 4 155 21 82 40 117 150 76 236 -17 36 -75 80 -176 133
-26 14 -47 29 -47 34 0 5 34 69 76 142 l77 133 51 -30 c110 -64 166 -89 203
-89 83 0 162 74 171 158 4 50 -10 86 -87 218 l-30 51 133 77 c73 42 137 76
142 76 5 0 20 -21 34 -47 82 -155 125 -193 217 -193 66 0 120 33 150 89 20 39
23 58 23 158 l0 113 160 0 160 0 0 -112z m30 -551 c100 -28 168 -57 242 -106
366 -240 474 -708 250 -1084 -47 -78 -47 -78 -82 -72 -19 4 -35 8 -35 8 -4 16
-69 97 -97 121 l-38 33 22 49 c21 45 23 66 26 261 2 134 -1 233 -8 268 -37
177 -178 324 -357 370 -249 65 -511 -94 -578 -352 -11 -42 -15 -112 -15 -259
0 -168 3 -214 20 -279 l20 -78 -44 -47 c-24 -25 -54 -70 -67 -98 -13 -29 -27
-52 -31 -52 -4 0 -22 19 -41 43 -215 264 -234 644 -47 931 118 181 302 305
520 352 80 17 262 12 340 -9z m-53 -330 c68 -35 119 -87 149 -151 44 -95 36
-94 -126 14 -82 55 -154 100 -160 100 -6 0 -78 -45 -160 -100 -162 -108 -170
-109 -126 -14 38 81 113 144 206 175 50 17 162 4 217 -24z m-54 -279 l79 -52
-5 -49 c-8 -89 -67 -142 -157 -142 -90 0 -149 53 -157 142 l-5 49 78 52 c44
28 81 52 83 52 3 0 40 -23 84 -52z m-361 -243 c9 -16 31 -45 49 -63 31 -31 31
-34 20 -71 -10 -34 -16 -39 -48 -44 -20 -4 -39 -5 -41 -2 -12 12 -21 93 -21
185 0 99 1 103 13 65 7 -22 20 -53 28 -70z m586 -131 c-11 -32 -18 -40 -41
-42 -35 -4 -54 11 -62 49 -6 25 -1 35 25 62 33 33 78 116 82 152 1 11 4 -25 5
-81 2 -63 -1 -115 -9 -140z m-247 -74 c11 -36 9 -50 -11 -115 -23 -73 -36 -90
-63 -79 -8 3 -24 38 -37 79 -20 65 -22 79 -11 115 12 40 12 40 61 40 49 0 49
0 61 -40z m-258 -184 c40 -125 128 -191 231 -172 74 14 132 76 163 172 11 35
22 54 32 54 31 0 116 -48 150 -83 l34 -36 -32 -37 c-36 -40 -49 -69 -60 -129
-6 -36 -11 -41 -56 -58 -122 -46 -268 -57 -405 -33 -87 16 -219 65 -272 101
l-38 25 21 53 c30 79 69 129 129 165 74 44 83 42 103 -22z m812 -201 l25 -24
0 -536 0 -535 80 0 80 0 0 295 0 296 25 24 c15 16 36 25 55 25 19 0 40 -9 55
-25 l25 -24 0 -296 0 -295 80 0 80 0 0 215 c0 216 0 216 25 240 32 33 78 33
111 0 l26 -26 -4 -352 c-4 -335 -5 -355 -27 -422 -31 -93 -74 -178 -123 -242
l-40 -53 -368 0 -368 0 -41 53 c-56 73 -116 206 -135 299 -12 59 -16 140 -16
344 l0 267 33 -7 c38 -7 73 -31 101 -70 19 -25 21 -44 24 -217 l3 -189 80 0
79 0 0 615 0 616 25 24 c15 16 36 25 55 25 19 0 40 -9 55 -25z m-1515 -244 c0
-5 -28 -58 -63 -119 l-63 -111 -57 56 -56 57 107 62 c106 61 132 72 132 55z
m-670 -74 c207 -57 368 -172 481 -345 166 -252 170 -590 11 -844 -57 -91 -114
-158 -120 -140 -2 7 -22 35 -44 63 -48 61 -141 123 -217 145 -78 22 -85 27
-95 63 -8 29 -6 35 27 69 38 39 76 113 77 148 0 11 32 70 70 129 39 60 78 134
87 164 32 113 -2 235 -91 319 -85 80 -114 87 -376 87 -262 0 -291 -7 -376 -87
-89 -84 -123 -206 -91 -319 9 -30 48 -104 87 -164 38 -59 70 -118 70 -129 0
-33 44 -118 80 -154 29 -29 32 -36 24 -64 -10 -35 -17 -40 -95 -62 -76 -22
-169 -84 -217 -145 -22 -28 -42 -56 -44 -63 -10 -30 -143 157 -178 250 -45
119 -55 173 -55 302 0 175 36 297 125 434 118 181 302 305 520 352 80 17 262
12 340 -9z m37 -317 c46 -20 79 -64 89 -118 7 -37 -11 -112 -27 -112 -5 0 -70
41 -144 90 -74 50 -139 90 -145 90 -6 0 -71 -40 -145 -90 -74 -49 -139 -90
-144 -90 -16 0 -34 75 -27 112 10 54 43 98 89 118 37 17 66 20 227 20 161 0
190 -3 227 -20z m-144 -292 l79 -52 -4 -87 c-3 -94 -15 -121 -72 -163 -39 -29
-133 -29 -172 0 -57 42 -69 69 -72 163 l-4 87 79 52 c43 28 80 52 82 52 3 0
40 -23 84 -52z m-25 -517 c9 -26 7 -32 -24 -62 l-34 -33 -34 33 c-31 30 -33
36 -24 62 9 27 14 29 58 29 44 0 49 -2 58 -29z m-196 -188 l58 -57 0 -102 0
-102 -67 13 c-112 22 -293 98 -293 123 0 25 83 117 125 140 25 13 97 39 115
41 2 1 30 -25 62 -56z m428 25 c25 -10 56 -29 69 -41 28 -26 81 -96 81 -108 0
-12 -102 -67 -167 -90 -32 -11 -88 -26 -125 -33 l-68 -14 0 101 0 101 57 58
c63 63 66 64 153 26z m2520 -300 c0 -7 14 -146 30 -308 16 -162 30 -301 30
-307 0 -10 -85 -13 -390 -13 -365 0 -390 1 -390 18 0 9 7 78 15 152 8 74 15
138 15 143 0 4 99 7 220 7 l220 0 0 80 0 80 -210 0 -210 0 0 28 c0 15 3 51 6
80 l7 52 328 0 c257 0 329 -3 329 -12z"/>
<path d="M560 4480 l0 -80 80 0 80 0 0 80 0 80 -80 0 -80 0 0 -80z"/>
<path d="M880 4480 l0 -80 80 0 80 0 0 80 0 80 -80 0 -80 0 0 -80z"/>
<path d="M1200 4480 l0 -80 80 0 80 0 0 80 0 80 -80 0 -80 0 0 -80z"/>
<path d="M560 4160 l0 -80 80 0 80 0 0 80 0 80 -80 0 -80 0 0 -80z"/>
<path d="M880 4160 l0 -80 80 0 80 0 0 80 0 80 -80 0 -80 0 0 -80z"/>
<path d="M560 3840 l0 -80 80 0 80 0 0 80 0 80 -80 0 -80 0 0 -80z"/>
<path d="M1360 3100 c0 -147 -3 -180 -14 -180 -7 0 -48 60 -89 133 -42 72 -82
141 -90 151 -13 18 -27 11 -282 -135 -147 -85 -269 -159 -271 -164 -3 -6 34
-77 81 -159 47 -81 85 -152 85 -157 0 -18 -20 -8 -166 76 -81 47 -152 84 -158
82 -6 -3 -80 -125 -165 -272 -147 -255 -153 -268 -135 -282 10 -8 79 -48 152
-90 72 -41 132 -82 132 -89 0 -11 -33 -14 -180 -14 l-180 0 0 -320 0 -320 180
0 c147 0 180 -3 180 -14 0 -7 -60 -48 -132 -89 -73 -42 -142 -82 -152 -90 -18
-14 -12 -26 135 -282 85 -147 159 -269 165 -271 6 -3 77 34 158 81 146 84 166
94 166 76 0 -5 -38 -76 -85 -157 -47 -82 -84 -153 -81 -159 2 -5 124 -79 271
-164 255 -146 269 -153 282 -135 8 10 48 79 90 152 41 72 82 132 89 132 11 0
14 -33 14 -180 l0 -180 320 0 320 0 0 180 c0 147 3 180 14 180 7 0 48 -60 89
-132 42 -73 82 -142 90 -152 14 -19 26 -12 282 135 147 85 269 159 272 164 2
6 -35 77 -82 159 -47 81 -85 152 -85 157 0 18 21 8 171 -78 140 -81 152 -86
164 -69 38 51 306 527 301 534 -3 5 -71 46 -151 92 -80 46 -145 90 -145 97 0
10 39 13 180 13 l180 0 0 160 0 160 -80 0 -80 0 0 -80 0 -80 -113 0 c-100 0
-119 -3 -158 -23 -63 -34 -91 -85 -87 -162 5 -82 26 -109 142 -175 52 -30 95
-59 96 -64 0 -5 -35 -69 -77 -143 -73 -126 -78 -132 -97 -120 -131 84 -171
102 -233 102 -53 0 -66 -4 -100 -31 -21 -17 -46 -46 -55 -65 -35 -67 -22 -116
71 -276 l30 -51 -133 -76 c-74 -42 -138 -76 -142 -76 -5 0 -20 21 -34 47 -82
155 -125 193 -217 193 -66 0 -120 -33 -150 -89 -20 -39 -23 -58 -23 -158 l0
-113 -160 0 -160 0 0 112 c0 93 -4 119 -21 155 -40 82 -150 117 -236 76 -36
-17 -80 -75 -133 -176 -14 -26 -29 -47 -34 -47 -5 0 -69 34 -142 76 l-133 77
30 51 c77 132 91 168 87 218 -9 92 -92 163 -183 155 -47 -4 -72 -15 -211 -98
l-31 -19 -77 135 c-43 74 -75 139 -72 143 3 5 47 34 97 63 111 65 132 92 137
174 4 77 -24 128 -87 162 -39 20 -58 23 -158 23 l-113 0 0 160 0 160 112 0
c138 0 184 18 224 86 22 38 26 54 22 103 -6 78 -28 106 -137 170 -50 29 -94
58 -97 63 -3 4 29 69 72 143 l77 135 31 -19 c17 -10 60 -35 95 -56 111 -66
196 -57 265 28 20 25 30 51 34 85 4 50 -10 86 -87 218 l-30 51 133 77 c73 42
137 76 142 76 5 0 20 -21 34 -47 82 -155 125 -193 217 -193 66 0 120 33 150
89 20 39 23 58 23 158 l0 113 80 0 80 0 0 80 0 80 -160 0 -160 0 0 -180z"/>
</g>
</svg>
