<?xml version="1.0" standalone="no"?>
<!DOCTYPE svg PUBLIC "-//W3C//DTD SVG 20010904//EN"
 "http://www.w3.org/TR/2001/REC-SVG-20010904/DTD/svg10.dtd">
<svg version="1.0" xmlns="http://www.w3.org/2000/svg"
 width="512.000000pt" height="512.000000pt" viewBox="0 0 512.000000 512.000000"
 preserveAspectRatio="xMidYMid meet">

<g transform="translate(0.000000,512.000000) scale(0.100000,-0.100000)"
fill="#fff" stroke="none">
<path d="M1177 4570 c-17 -14 -27 -31 -27 -48 0 -15 25 -157 57 -316 64 -330
68 -340 145 -334 57 4 69 25 123 203 25 83 48 157 51 165 3 8 30 -64 60 -160
59 -191 71 -210 133 -210 67 0 73 13 136 328 31 156 57 296 57 312 2 54 -53
90 -104 69 -33 -14 -33 -15 -73 -209 l-31 -155 -17 50 c-9 28 -32 102 -51 165
-41 133 -50 148 -91 156 -58 11 -76 -17 -130 -195 -27 -89 -51 -161 -55 -161
-3 0 -20 73 -38 162 -17 89 -37 168 -44 175 -25 25 -71 26 -101 3z"/>
<path d="M2284 4576 c-156 -38 -255 -165 -262 -336 -5 -119 20 -184 102 -266
76 -76 146 -105 251 -105 96 0 169 28 240 92 214 196 126 550 -154 615 -68 16
-109 16 -177 0z m160 -148 c113 -34 173 -182 118 -293 -61 -125 -227 -156
-330 -61 -46 41 -64 93 -60 166 5 88 36 137 109 174 58 29 101 32 163 14z"/>
<path d="M2905 4565 l-25 -24 0 -309 c0 -298 1 -310 21 -336 23 -30 72 -35
105 -12 16 12 20 30 24 110 l5 96 67 -77 c120 -140 124 -143 162 -143 38 0 63
19 72 55 8 32 -7 57 -87 146 l-68 76 52 34 c128 84 139 260 22 357 -51 41 -96
52 -219 52 -100 0 -108 -2 -131 -25z m260 -150 c59 -58 11 -125 -90 -125 l-45
0 0 75 0 75 55 0 c46 0 60 -4 80 -25z"/>
<path d="M3520 4570 c-19 -19 -20 -33 -20 -343 0 -301 1 -325 18 -340 27 -24
85 -22 108 4 14 16 20 40 23 100 l3 79 107 -100 c89 -84 111 -100 139 -100 42
0 72 30 72 73 0 28 -15 47 -135 163 l-136 131 73 69 c172 163 178 169 178 202
0 42 -31 72 -73 72 -27 0 -48 -15 -130 -91 l-97 -91 0 55 c0 65 -16 114 -40
127 -30 16 -68 12 -90 -10z"/>
<path d="M2145 3625 l-25 -24 0 -309 c0 -298 1 -310 21 -336 27 -34 77 -36
107 -3 22 23 22 29 22 339 l0 317 -26 20 c-35 28 -69 26 -99 -4z"/>
<path d="M2476 3629 l-26 -20 0 -319 0 -319 26 -20 c33 -26 65 -27 95 -2 23
19 24 25 29 198 l5 178 127 -185 c80 -119 136 -190 152 -198 37 -17 92 7 107
45 14 35 4 606 -11 634 -13 24 -55 35 -89 23 -48 -17 -53 -43 -46 -226 3 -93
3 -168 -2 -168 -4 1 -60 78 -123 172 -63 94 -127 183 -142 199 -31 34 -65 37
-102 8z"/>
<path d="M460 3340 c-43 -43 -14 -113 52 -125 18 -3 329 -5 691 -3 l659 3 19
24 c25 30 24 76 -1 101 -20 20 -33 20 -710 20 -677 0 -690 0 -710 -20z"/>
<path d="M3240 3340 c-38 -38 -22 -100 31 -119 45 -15 1313 -15 1358 0 53 19
69 81 31 119 -20 20 -33 20 -710 20 -677 0 -690 0 -710 -20z"/>
<path d="M22 2687 c-22 -23 -22 -29 -22 -336 l0 -312 25 -24 c13 -14 36 -25
50 -25 14 0 37 11 50 25 23 22 25 31 25 123 l0 99 78 5 c117 7 179 46 221 138
38 84 23 185 -37 252 -59 66 -97 78 -243 78 -118 0 -127 -1 -147 -23z m273
-152 c17 -16 25 -35 25 -57 -1 -59 -40 -88 -119 -88 l-51 0 0 85 0 85 60 0
c51 0 65 -4 85 -25z"/>
<path d="M625 2690 c-19 -21 -20 -40 -23 -309 -2 -157 0 -301 3 -319 12 -66
82 -95 125 -52 17 17 20 33 20 110 0 50 3 90 8 89 4 0 45 -45 92 -100 47 -56
93 -105 102 -110 48 -26 108 11 108 67 0 22 -19 51 -77 118 -49 56 -73 91 -65
94 33 11 98 71 120 112 19 37 23 56 20 111 -4 79 -35 134 -100 176 -39 27 -48
28 -178 31 -129 3 -137 2 -155 -18z m265 -150 c44 -44 11 -120 -52 -120 -18 0
-43 -3 -55 -6 -22 -6 -23 -4 -23 70 l0 76 55 0 c42 0 60 -5 75 -20z"/>
<path d="M1407 2691 c-92 -37 -155 -98 -200 -191 -28 -57 -32 -75 -31 -145 1
-151 76 -271 207 -331 53 -24 74 -28 147 -28 153 1 259 64 322 192 30 61 33
74 33 162 0 82 -4 103 -26 151 -36 77 -87 130 -161 170 -56 29 -73 33 -153 36
-71 3 -100 -1 -138 -16z m223 -153 c118 -60 147 -223 57 -325 -113 -129 -320
-75 -358 92 -21 96 25 190 116 238 45 24 132 21 185 -5z"/>
<path d="M2278 2696 c-174 -62 -273 -219 -248 -393 17 -122 88 -221 198 -275
60 -30 75 -33 157 -33 78 0 97 4 141 27 96 51 154 138 174 264 19 120 -12 146
-166 142 -118 -3 -144 -17 -144 -75 0 -51 29 -73 95 -73 64 0 71 -14 33 -70
-52 -75 -150 -90 -241 -37 -146 86 -131 306 25 372 53 21 130 19 179 -6 52
-26 96 -22 122 13 56 75 -58 159 -216 158 -40 -1 -88 -7 -109 -14z"/>
<path d="M2860 2690 c-19 -19 -20 -33 -20 -338 l0 -319 23 -21 c29 -27 67 -28
98 -3 21 17 24 30 29 110 l5 91 67 -77 c36 -43 81 -93 98 -110 46 -47 99 -44
125 8 21 40 8 67 -77 161 -56 63 -69 82 -57 89 8 5 17 9 21 9 4 0 23 14 43 32
101 88 105 238 8 330 -49 47 -91 58 -223 58 -107 0 -122 -2 -140 -20z m258
-146 c16 -11 22 -25 22 -54 0 -48 -22 -65 -97 -73 l-53 -6 0 74 0 75 53 0 c31
0 61 -6 75 -16z"/>
<path d="M3456 2689 l-26 -20 0 -318 0 -318 23 -21 c22 -21 33 -22 170 -22
134 0 149 2 167 20 20 20 27 74 12 96 -16 24 -55 34 -136 34 l-86 0 0 65 0 65
69 0 c84 0 125 13 140 46 16 35 14 47 -10 78 -19 25 -25 26 -110 26 l-89 0 0
70 0 70 95 0 c109 0 135 14 135 73 0 67 -26 77 -193 77 -121 0 -137 -2 -161
-21z"/>
<path d="M4099 2687 c-116 -61 -156 -237 -69 -310 25 -21 58 -37 217 -102 65
-27 81 -99 28 -123 -56 -26 -131 -9 -191 41 -85 72 -179 -17 -108 -102 14 -17
55 -45 92 -63 59 -29 76 -33 152 -33 75 0 91 3 132 28 67 39 103 103 103 182
-1 36 -7 72 -17 91 -23 42 -76 92 -118 110 -19 8 -69 30 -110 47 -80 35 -95
54 -64 88 25 28 99 26 158 -6 62 -33 99 -32 125 1 12 15 21 34 21 44 0 31 -42
72 -104 101 -81 38 -180 41 -247 6z"/>
<path d="M4770 2699 c-96 -40 -155 -147 -130 -239 18 -67 62 -105 175 -151
109 -44 145 -70 145 -106 0 -80 -136 -86 -226 -10 -58 49 -134 23 -134 -46 0
-38 54 -91 130 -126 46 -22 69 -26 140 -26 98 0 152 22 193 77 52 71 60 145
23 224 -29 63 -68 93 -171 135 -145 57 -156 68 -115 109 29 29 103 27 155 -5
73 -45 145 -23 145 45 0 37 -31 68 -98 101 -53 26 -188 37 -232 18z"/>
<path d="M386 1524 c-248 -60 -415 -308 -379 -560 26 -179 149 -329 330 -402
l68 -27 2114 -3 2114 -2 24 22 c30 28 31 78 2 104 -19 17 -43 20 -218 24
l-198 5 198 350 197 350 38 -3 c97 -7 206 -92 258 -202 27 -57 31 -76 31 -150
0 -88 -10 -119 -77 -230 -19 -33 -20 -39 -7 -65 8 -16 26 -34 40 -39 45 -15
74 0 114 60 100 150 110 334 29 501 -55 113 -155 205 -279 254 l-60 24 -2140
2 c-1824 1 -2149 -1 -2199 -13z m470 -178 c-14 -25 -26 -58 -26 -75 0 -56 59
-88 110 -61 10 5 39 48 65 95 l46 85 270 0 c148 0 269 -3 269 -7 0 -5 -88
-163 -194 -353 l-194 -345 -271 -3 c-149 -1 -271 0 -271 3 0 3 20 43 45 89 35
64 44 90 39 110 -13 54 -84 74 -120 35 -10 -11 -46 -69 -80 -127 l-61 -107
-39 2 c-94 6 -214 98 -262 201 -34 72 -38 201 -9 271 42 104 123 179 226 212
46 15 92 18 269 18 l214 1 -26 -44z m1454 39 c0 -3 -89 -162 -197 -355 l-197
-350 -274 0 -274 0 20 33 c11 17 90 158 177 312 86 154 168 299 181 323 l25
42 269 0 c149 0 270 -2 270 -5z m678 -73 c-24 -43 -113 -203 -198 -355 l-155
-277 -273 0 -274 0 39 68 c21 38 110 198 198 355 l160 286 273 1 273 0 -43
-78z m733 26 c-17 -29 -106 -188 -199 -353 l-169 -300 -272 -3 c-155 -1 -271
1 -269 6 1 5 91 165 198 356 l195 346 273 0 272 0 -29 -52z m739 45 c0 -3 -88
-163 -196 -355 l-196 -348 -269 0 c-148 0 -269 3 -269 6 0 3 88 163 196 355
l196 349 269 0 c148 0 269 -3 269 -7z"/>
</g>
</svg>
