<?xml version="1.0" standalone="no"?>
<!DOCTYPE svg PUBLIC "-//W3C//DTD SVG 20010904//EN"
 "http://www.w3.org/TR/2001/REC-SVG-20010904/DTD/svg10.dtd">
<svg version="1.0" xmlns="http://www.w3.org/2000/svg"
 width="512.000000pt" height="512.000000pt" viewBox="0 0 512.000000 512.000000"
 preserveAspectRatio="xMidYMid meet">

<g transform="translate(0.000000,512.000000) scale(0.100000,-0.100000)"
fill="#fff" stroke="none">
<path d="M2240 5114 c-146 -22 -266 -57 -365 -107 -335 -167 -569 -493 -615
-859 -5 -46 -10 -264 -10 -486 l0 -404 -45 -50 c-24 -27 -57 -75 -72 -106 -24
-51 -28 -68 -28 -157 0 -92 3 -105 32 -166 39 -80 111 -150 191 -187 46 -21
76 -27 155 -30 l97 -4 0 -52 c0 -80 29 -232 61 -319 38 -106 88 -193 165 -288
35 -43 64 -80 64 -83 0 -3 -22 -17 -49 -30 -74 -38 -203 -139 -272 -214 -74
-80 -158 -205 -199 -296 l-29 -66 -79 0 c-68 0 -87 -4 -140 -31 -72 -35 -126
-94 -150 -161 -12 -36 -24 -51 -47 -60 -43 -18 -103 -75 -128 -122 -19 -36
-22 -60 -25 -203 -4 -185 7 -243 59 -306 17 -21 53 -49 79 -62 37 -19 50 -32
55 -54 9 -41 65 -116 111 -150 75 -55 112 -61 373 -61 235 0 238 0 259 23 29
31 29 77 -1 105 -23 21 -31 22 -250 22 -252 0 -273 4 -320 60 l-28 32 41 20
c53 26 105 89 126 150 12 39 15 81 12 216 -3 148 -6 172 -25 207 -25 47 -75
96 -121 119 -31 16 -32 17 -16 41 9 14 31 34 49 45 32 20 46 20 1400 20 1507
0 1409 4 1456 -61 l20 -28 -33 -17 c-46 -23 -96 -72 -121 -119 -19 -35 -22
-59 -25 -207 -3 -135 0 -177 12 -216 21 -61 73 -124 126 -150 l41 -20 -28 -32
c-53 -63 2 -60 -1088 -60 -631 0 -1003 -4 -1015 -10 -43 -23 -40 -116 5 -134
9 -3 468 -6 1020 -6 1104 0 1052 -3 1139 61 46 34 102 109 111 150 5 22 18 35
55 54 26 13 62 41 79 62 52 63 63 121 59 306 -3 143 -6 167 -25 203 -25 47
-85 104 -128 122 -23 9 -35 24 -47 60 -24 67 -78 126 -150 161 -53 27 -72 31
-139 31 l-78 0 -41 85 c-102 208 -285 402 -465 492 -27 14 -52 27 -54 29 -2 2
16 25 40 51 144 154 238 376 255 602 l7 89 96 4 c116 5 184 32 261 104 157
147 157 408 0 559 l-30 29 0 406 c0 432 -6 519 -46 657 -50 175 -167 373 -221
373 -11 0 -32 -9 -47 -21 -35 -28 -34 -70 4 -128 49 -77 108 -213 131 -302 21
-78 23 -112 26 -503 4 -387 3 -418 -12 -412 -9 3 -50 6 -91 6 l-74 0 0 231 c0
226 -4 262 -34 281 -19 13 -62 9 -158 -17 -292 -77 -604 -77 -873 2 -259 75
-506 217 -717 412 -87 81 -121 91 -157 45 -21 -26 -21 -36 -21 -490 l0 -464
-74 0 c-41 0 -82 -3 -91 -6 -15 -6 -16 25 -12 412 3 392 5 425 26 504 91 350
360 616 717 707 59 16 117 18 414 18 295 0 355 -3 413 -17 111 -29 224 -78
310 -136 96 -64 128 -69 164 -27 25 29 25 63 0 93 -39 48 -217 144 -342 186
-136 46 -240 56 -555 55 -157 -1 -296 -3 -310 -5z m-298 -1208 c177 -115 409
-210 628 -258 92 -19 134 -22 335 -23 201 0 244 3 342 23 62 12 120 25 128 29
14 5 16 -59 13 -638 -4 -720 -2 -690 -79 -857 -110 -239 -313 -407 -567 -469
-99 -24 -284 -22 -387 6 -249 67 -443 231 -550 464 -73 159 -69 109 -73 1041
l-3 838 63 -50 c35 -27 102 -75 150 -106z m-362 -961 l0 -235 -72 0 c-119 0
-194 45 -237 140 -52 114 -3 247 111 304 42 21 66 26 125 26 l73 0 0 -235z
m2176 200 c135 -84 152 -277 33 -379 -48 -41 -97 -56 -183 -56 l-66 0 0 236 0
236 83 -3 c72 -4 90 -8 133 -34z m-1683 -1471 c146 -85 301 -126 482 -127 195
-1 369 48 527 150 27 17 28 16 111 -25 114 -58 234 -156 311 -253 56 -71 126
-184 126 -203 0 -3 -481 -6 -1070 -6 -588 0 -1070 3 -1070 6 0 19 70 132 126
203 76 96 195 193 306 250 44 23 82 41 85 41 2 0 32 -16 66 -36z m-991 -873
l33 -29 3 -150 c3 -124 1 -156 -13 -182 -36 -70 -144 -75 -185 -7 -17 28 -20
51 -20 172 0 122 3 144 20 173 36 59 110 70 162 23z m3072 19 c14 -5 35 -24
46 -42 17 -29 20 -51 20 -173 0 -121 -3 -144 -20 -172 -41 -68 -149 -63 -185
7 -14 26 -16 58 -13 182 l3 150 33 29 c34 31 71 37 116 19z"/>
<path d="M2272 3377 c-20 -21 -22 -34 -22 -141 0 -111 1 -118 25 -141 13 -14
36 -25 50 -25 14 0 37 11 50 25 24 23 25 30 25 138 0 100 -3 117 -21 141 -27
34 -77 36 -107 3z"/>
<path d="M2741 3374 c-18 -24 -21 -41 -21 -141 0 -108 1 -115 25 -138 13 -14
36 -25 50 -25 14 0 37 11 50 25 24 23 25 30 25 143 0 111 -1 120 -23 140 -33
31 -80 29 -106 -4z"/>
<path d="M2151 2634 c-32 -41 -26 -63 33 -120 93 -91 233 -144 376 -144 143 0
283 53 376 144 59 57 65 79 33 120 -31 39 -76 35 -131 -11 -23 -20 -72 -50
-108 -67 -60 -29 -73 -31 -170 -31 -97 0 -110 2 -170 31 -36 17 -85 47 -108
67 -55 46 -100 50 -131 11z"/>
<path d="M1542 883 c-24 -21 -214 -513 -215 -555 0 -38 29 -68 68 -68 42 0 60
16 84 73 l20 47 99 0 99 0 12 -41 c16 -54 43 -79 85 -79 25 0 40 7 55 26 12
15 21 32 21 39 0 26 -198 536 -215 555 -23 25 -85 27 -113 3z m79 -308 l17
-45 -39 0 c-21 0 -39 3 -39 7 0 17 33 93 39 88 3 -3 13 -26 22 -50z"/>
<path d="M1951 874 c-20 -25 -21 -39 -21 -228 0 -191 1 -204 24 -252 38 -82
122 -134 217 -134 76 0 125 18 180 68 70 63 79 100 79 332 0 174 -1 189 -21
214 -26 33 -79 36 -109 6 -19 -19 -20 -33 -20 -216 l0 -196 -29 -29 c-40 -40
-106 -41 -145 -3 l-26 27 0 196 c0 185 -1 199 -20 219 -30 32 -82 30 -109 -4z"/>
<path d="M2550 880 c-19 -19 -20 -33 -20 -300 0 -346 -13 -320 158 -320 107 0
123 2 170 26 61 30 96 69 131 144 21 46 26 70 26 145 0 113 -22 181 -79 243
-63 70 -99 82 -243 82 -110 0 -125 -2 -143 -20z m270 -158 c67 -67 65 -215 -3
-283 -24 -25 -36 -29 -83 -29 l-54 0 0 170 0 170 56 0 c48 0 60 -4 84 -28z"/>
<path d="M3130 880 c-19 -19 -20 -33 -20 -300 0 -267 1 -281 20 -300 27 -27
81 -26 106 1 18 20 19 40 19 299 0 259 -1 279 -19 299 -25 27 -79 28 -106 1z"/>
<path d="M3391 874 c-48 -61 -2 -124 90 -124 l29 0 0 -225 c0 -212 1 -226 20
-245 30 -30 83 -27 109 6 20 25 21 39 21 244 l0 217 46 6 c28 3 54 13 67 25
25 26 26 75 2 102 -17 19 -30 20 -191 20 l-173 0 -20 -26z"/>
</g>
</svg>
