<?xml version="1.0" standalone="no"?>
<!DOCTYPE svg PUBLIC "-//W3C//DTD SVG 20010904//EN"
 "http://www.w3.org/TR/2001/REC-SVG-20010904/DTD/svg10.dtd">
<svg version="1.0" xmlns="http://www.w3.org/2000/svg"
 width="128.000000pt" height="128.000000pt" viewBox="0 0 128.000000 128.000000"
 preserveAspectRatio="xMidYMid meet">

<g transform="translate(0.000000,128.000000) scale(0.100000,-0.100000)"
fill="#000000" stroke="none">
<path d="M730 1196 c0 -10 5 -26 11 -37 6 -11 8 -33 4 -48 l-6 -28 -97 0 c-81
1 -104 -3 -138 -21 -73 -38 -183 -177 -184 -232 0 -8 -9 -21 -20 -28 -11 -7
-20 -23 -20 -36 0 -41 25 -56 90 -56 51 0 62 -3 74 -22 34 -53 30 -68 -39
-163 -65 -89 -66 -89 -105 -86 -33 2 -45 -3 -70 -27 -50 -50 -40 -126 22 -158
43 -22 91 -11 121 28 23 29 27 30 71 24 43 -7 46 -9 46 -37 0 -35 -54 -99
-104 -123 -48 -22 -138 -21 -185 4 -73 37 -121 116 -121 200 1 69 56 151 125
188 33 17 113 22 158 9 21 -6 29 -4 34 9 14 36 -88 54 -172 29 -221 -64 -249
-367 -43 -469 101 -50 213 -32 294 49 50 50 51 50 83 37 65 -26 144 27 157
105 5 35 3 43 -13 54 -19 11 -16 18 64 133 46 67 87 121 90 121 3 0 23 -45 43
-100 l37 -99 -19 -32 c-23 -40 -16 -76 20 -105 51 -40 122 -1 122 65 0 35 -34
76 -63 76 -21 0 -20 -1 -67 129 l-39 111 29 -15 c77 -40 136 1 135 96 l0 54
-38 3 c-21 2 -59 -1 -84 -6 -41 -9 -47 -8 -74 17 -23 20 -31 38 -36 77 -5 51
-5 52 19 47 14 -3 31 1 39 9 8 8 22 17 32 21 9 3 17 13 17 20 0 8 9 22 20 32
42 38 12 128 -58 168 -19 11 -60 22 -97 25 -57 4 -65 3 -65 -12z m135 -46 c33
-16 65 -52 65 -73 0 -2 -19 -4 -42 -5 -59 -2 -98 15 -98 43 0 13 -3 30 -6 39
-9 23 30 21 81 -4z m-121 -117 c16 -10 36 -73 36 -117 0 -36 -4 -45 -22 -49
-13 -4 -26 0 -32 8 -10 13 -21 13 -91 1 -76 -14 -81 -14 -108 5 -28 20 -47 18
-47 -4 0 -7 23 -30 50 -52 28 -22 50 -42 50 -45 0 -3 -17 -22 -38 -43 l-37
-36 -67 50 c-37 27 -70 58 -73 69 -6 20 19 85 37 96 5 4 15 1 21 -5 15 -15 47
-14 47 1 0 6 -7 20 -16 30 -16 17 -15 20 21 53 21 19 56 39 79 44 39 9 171 5
190 -6z m155 -10 c3 -2 -5 -14 -18 -26 -21 -20 -23 -21 -32 -4 -6 9 -18 17
-28 17 -11 0 -22 7 -25 15 -5 13 2 15 47 9 28 -4 54 -8 56 -11z m-175 -231
c16 -32 37 -54 65 -70 23 -13 39 -28 36 -33 -7 -11 -75 -12 -75 -1 0 4 -35 36
-77 71 -82 69 -83 79 -6 80 29 1 35 -4 57 -47z m76 23 c0 -8 33 -39 73 -69 62
-46 77 -53 106 -49 26 4 32 2 29 -8 -9 -28 -51 -20 -131 26 -84 48 -117 77
-117 101 0 8 9 14 20 14 11 0 20 -7 20 -15z m-440 -55 c0 -5 -9 -10 -20 -10
-11 0 -20 5 -20 10 0 6 9 10 20 10 11 0 20 -4 20 -10z m645 -10 c-3 -5 -21
-10 -38 -10 -24 0 -28 3 -17 10 20 13 63 13 55 0z m-332 -43 l47 -42 -45 -137
c-45 -132 -58 -155 -84 -139 -10 6 -6 31 14 107 15 54 29 104 32 111 3 6 -15
24 -39 39 -24 16 -45 30 -47 31 -5 4 60 73 68 73 4 -1 27 -20 54 -43z m91
-147 c-31 -44 -57 -80 -59 -80 -4 0 41 135 50 150 3 5 19 10 35 10 l29 0 -55
-80z m-174 38 c0 -7 -6 -33 -13 -57 l-13 -43 -18 47 c-16 40 -16 49 -5 56 21
13 49 11 49 -3z m-68 -101 c14 -39 21 -64 15 -53 -28 43 -49 66 -63 66 -20 0
-18 -12 11 -66 29 -54 30 -63 12 -88 -21 -28 -93 -12 -111 26 -15 28 -14 31
42 108 31 44 59 79 62 80 3 0 17 -33 32 -73z m-227 -123 c-22 -34 -13 -52 27
-56 l33 -3 -29 -19 c-26 -18 -31 -18 -55 -5 -48 27 -32 109 22 109 18 0 19 -1
2 -26z m723 -26 c4 -30 -20 -52 -47 -43 -23 7 -36 34 -22 48 5 5 12 1 16 -13
9 -29 30 -19 30 14 -1 33 19 28 23 -6z m-355 -13 c27 -11 17 -41 -13 -37 -37
6 -90 30 -90 41 0 11 74 8 103 -4z m-63 -65 c8 0 21 -4 29 -9 11 -7 9 -11 -8
-20 -34 -19 -91 9 -91 44 0 12 5 11 28 -1 15 -7 34 -14 42 -14z"/>
<path d="M945 590 c-11 -18 4 -27 56 -33 70 -9 132 -47 165 -103 66 -112 27
-246 -89 -306 -59 -30 -160 -23 -214 15 -113 78 -124 256 -21 342 18 15 28 31
24 40 -8 23 -22 18 -60 -20 -50 -50 -68 -90 -74 -165 -6 -82 22 -153 79 -205
52 -47 100 -65 173 -65 236 0 343 284 167 443 -56 50 -188 87 -206 57z"/>
</g>
</svg>
