<?xml version="1.0" standalone="no"?>
<!DOCTYPE svg PUBLIC "-//W3C//DTD SVG 20010904//EN"
 "http://www.w3.org/TR/2001/REC-SVG-20010904/DTD/svg10.dtd">
<svg version="1.0" xmlns="http://www.w3.org/2000/svg"
 width="128.000000pt" height="128.000000pt" viewBox="0 0 128.000000 128.000000"
 preserveAspectRatio="xMidYMid meet">

<g transform="translate(0.000000,128.000000) scale(0.100000,-0.100000)"
fill="#FFF" stroke="none">
<path d="M889 1261 c-13 -10 -34 -21 -45 -25 -12 -4 -29 -15 -39 -26 -15 -16
-31 -20 -91 -20 -66 0 -74 -2 -93 -26 -12 -15 -21 -33 -21 -40 0 -11 -29 -14
-146 -14 -194 0 -192 1 -264 -166 -18 -41 -19 -41 -76 -46 -61 -5 -94 -30 -94
-69 0 -27 36 -59 66 -59 20 0 25 -4 20 -16 -3 -9 -6 -17 -6 -19 0 -2 -16 -12
-35 -21 -62 -29 -67 -49 -63 -279 3 -186 5 -205 23 -225 11 -12 30 -26 43 -31
19 -7 22 -16 22 -61 1 -87 39 -118 145 -118 106 0 144 31 145 118 l0 52 110 0
c86 0 110 -3 110 -14 0 -7 9 -25 21 -40 l20 -26 295 0 295 0 24 25 25 24 0
501 0 501 -25 24 c-21 22 -33 25 -93 25 -56 0 -72 4 -87 20 -10 11 -27 22 -39
26 -11 4 -32 15 -45 25 -13 11 -36 19 -51 19 -15 0 -38 -8 -51 -19z m87 -46
c15 -14 36 -25 46 -25 13 0 18 -6 16 -17 -3 -16 -16 -18 -103 -18 -80 0 -100
3 -100 14 0 8 12 18 26 22 15 3 36 16 48 28 27 27 34 26 67 -4z m-166 -85 c18
-18 33 -20 128 -20 96 0 111 2 127 20 26 29 149 29 165 1 14 -27 14 -955 0
-982 -10 -18 -24 -19 -288 -19 -203 0 -281 3 -290 12 -17 17 -17 979 0 996 7
7 39 12 75 12 50 0 67 -4 83 -20z m-212 -232 l2 -168 -229 0 -230 0 46 103
c25 56 55 125 68 153 36 80 47 85 205 82 l135 -3 3 -167z m-458 -68 c-13 -23
-65 -28 -73 -6 -8 20 2 26 45 26 36 0 38 -2 28 -20z m458 -212 l-3 -63 -100
-3 c-124 -3 -135 -12 -135 -108 l0 -65 -157 3 -158 3 -3 127 c-4 181 -27 168
298 168 l261 0 -3 -62z m2 -128 c0 -19 -7 -20 -95 -20 -88 0 -95 1 -95 20 0
19 7 20 95 20 88 0 95 -1 95 -20z m-5 -85 c0 -18 -8 -20 -92 -23 l-93 -3 0 26
0 26 93 -3 c84 -3 92 -5 92 -23z m5 -84 c0 -16 -8 -20 -42 -23 -58 -4 -60 -31
-3 -38 32 -4 40 -9 40 -25 0 -19 -8 -20 -253 -23 l-253 -2 -24 24 c-18 19 -25
36 -25 66 l0 40 280 0 c271 0 280 -1 280 -19z m-260 -195 c0 -70 -36 -93 -132
-84 -61 6 -78 24 -78 85 l0 43 105 0 105 0 0 -44z"/>
<path d="M684 1009 c-14 -24 18 -29 152 -27 123 3 139 5 142 21 3 16 -9 17
-142 17 -93 0 -147 -4 -152 -11z"/>
<path d="M1115 985 c-27 -23 -46 -33 -59 -29 -26 9 -39 -16 -19 -38 9 -10 22
-18 30 -18 23 0 122 83 122 103 1 27 -30 20 -74 -18z"/>
<path d="M685 930 c-14 -22 9 -30 86 -30 71 0 80 2 77 18 -3 14 -16 17 -80 20
-45 2 -79 -1 -83 -8z"/>
<path d="M685 799 c-15 -24 17 -29 151 -27 116 3 139 6 139 18 0 12 -24 15
-142 18 -96 2 -144 -1 -148 -9z"/>
<path d="M1120 774 c-26 -20 -52 -33 -62 -31 -31 9 -40 -17 -14 -42 l24 -23
61 48 c35 27 61 55 61 66 0 27 -20 22 -70 -18z"/>
<path d="M692 718 c-23 -23 7 -38 80 -38 54 0 70 3 75 16 3 9 0 20 -8 25 -21
13 -133 11 -147 -3z"/>
<path d="M692 588 c-8 -8 -9 -15 -1 -25 9 -9 45 -13 138 -13 130 0 158 7 148
34 -5 14 -27 16 -140 16 -89 0 -137 -4 -145 -12z"/>
<path d="M1120 560 c-32 -27 -51 -37 -66 -34 -12 3 -24 1 -27 -4 -8 -11 21
-52 36 -52 22 0 128 92 125 108 -5 27 -22 22 -68 -18z"/>
<path d="M685 500 c-14 -22 10 -30 86 -30 72 0 79 2 79 20 0 18 -7 20 -79 20
-44 0 -83 -4 -86 -10z"/>
<path d="M684 369 c-14 -24 18 -29 152 -27 123 3 139 5 142 21 3 16 -9 17
-142 17 -93 0 -147 -4 -152 -11z"/>
<path d="M1115 345 c-27 -23 -46 -33 -59 -29 -26 9 -39 -16 -19 -38 9 -10 22
-18 30 -18 23 0 122 83 122 103 1 27 -30 20 -74 -18z"/>
<path d="M685 290 c-14 -22 9 -30 86 -30 71 0 80 2 77 18 -3 14 -16 17 -80 20
-45 2 -79 -1 -83 -8z"/>
<path d="M398 922 c-70 -59 -117 -104 -117 -116 -1 -31 29 -14 152 85 109 88
141 130 100 128 -10 0 -71 -44 -135 -97z"/>
<path d="M155 608 c-78 -42 -49 -158 39 -158 47 0 90 50 82 94 -11 59 -72 91
-121 64z m59 -41 c38 -27 -2 -95 -41 -71 -24 15 -28 48 -8 68 20 19 26 20 49
3z"/>
</g>
</svg>
