<?xml version="1.0" standalone="no"?>
<!DOCTYPE svg PUBLIC "-//W3C//DTD SVG 20010904//EN"
 "http://www.w3.org/TR/2001/REC-SVG-20010904/DTD/svg10.dtd">
<svg version="1.0" xmlns="http://www.w3.org/2000/svg"
 width="512.000000pt" height="512.000000pt" viewBox="0 0 512.000000 512.000000"
 preserveAspectRatio="xMidYMid meet">

<g transform="translate(0.000000,512.000000) scale(0.100000,-0.100000)"
fill="#000000" stroke="none">
<path d="M647 3300 c-341 -104 -625 -194 -633 -201 -10 -8 -14 -36 -14 -100 0
-102 10 -119 71 -119 l39 0 0 -165 0 -165 -39 0 c-69 0 -71 -7 -71 -219 l0
-188 101 -132 100 -131 137 0 137 0 36 -45 c102 -126 263 -204 420 -205 72 0
200 33 258 67 66 38 133 96 166 143 l28 40 723 0 724 0 0 50 0 50 -696 0 -696
0 6 23 c4 12 12 56 18 98 10 64 9 90 -5 160 -23 120 -66 200 -151 284 -109
108 -222 155 -371 155 -247 0 -450 -154 -522 -394 -19 -65 -19 -215 0 -278
l15 -48 -88 0 -89 0 -75 98 -76 97 0 138 0 137 148 0 c129 0 151 2 164 18 27
30 118 197 118 216 0 23 -99 256 -118 279 -13 15 -35 17 -164 17 l-148 0 0 24
c0 15 7 27 18 30 32 9 477 145 821 251 l343 105 572 0 c336 0 606 -4 656 -10
187 -23 392 -92 549 -185 42 -24 182 -116 311 -205 l234 -160 259 0 c301 0
418 -13 576 -66 135 -45 260 -110 380 -198 l96 -71 -78 -3 -77 -3 0 -49 0 -50
115 0 c63 0 115 -2 115 -4 0 -2 -20 -49 -45 -105 -44 -98 -45 -105 -45 -201
l0 -100 -111 0 -111 0 7 28 c57 210 10 389 -139 538 -108 107 -220 154 -371
154 -45 0 -107 -7 -140 -15 -181 -47 -333 -199 -380 -380 -19 -74 -19 -203 -1
-272 l14 -53 -319 0 -319 0 0 -50 0 -50 340 0 339 0 78 -79 c86 -87 162 -132
265 -156 197 -46 418 30 535 184 l38 50 172 0 c142 1 174 4 187 17 13 12 16
40 16 138 l0 123 61 138 c38 87 58 146 55 159 -6 23 -273 225 -382 288 -245
143 -447 188 -851 188 l-250 0 -58 41 c-388 271 -572 379 -754 439 -218 73
-217 73 -921 76 l-635 4 -618 -190z m-261 -516 l38 -96 -36 -66 -37 -67 -70
-3 -71 -3 0 166 0 165 68 0 69 0 39 -96z m736 -227 c171 -84 270 -271 240
-453 -31 -190 -174 -334 -362 -366 -234 -40 -466 129 -499 367 -30 213 96 413
304 482 25 8 77 12 141 10 94 -2 106 -5 176 -40z m3195 22 c252 -94 362 -373
242 -611 -83 -164 -272 -260 -452 -230 -146 25 -260 109 -324 240 -37 75 -38
78 -38 191 0 99 4 123 23 166 53 115 152 207 264 246 77 27 210 25 285 -2z"/>
<path d="M870 2449 c-98 -19 -186 -103 -216 -206 -29 -99 -1 -202 74 -277 63
-64 105 -81 202 -81 76 0 91 3 139 30 99 55 158 165 148 275 -15 172 -177 293
-347 259z m115 -100 c22 -6 56 -28 76 -48 73 -72 77 -180 11 -253 -62 -69
-145 -87 -221 -48 -154 78 -139 290 24 348 40 14 62 14 110 1z"/>
<path d="M4110 2449 c-98 -19 -186 -103 -216 -206 -29 -99 -1 -202 74 -277 63
-64 105 -81 202 -81 76 0 91 3 139 30 99 55 158 165 148 275 -15 172 -177 293
-347 259z m115 -100 c22 -6 56 -28 76 -48 73 -72 77 -180 11 -253 -62 -69
-145 -87 -221 -48 -154 78 -139 290 24 348 40 14 62 14 110 1z"/>
<path d="M1108 3275 c-136 -40 -252 -76 -257 -80 -16 -9 -13 -60 3 -74 13 -11
483 -87 491 -79 3 3 8 25 11 50 l6 45 -91 12 c-160 22 -160 23 -19 64 122 36
130 37 287 37 l161 0 0 -81 0 -81 -69 7 -68 7 -7 -32 c-3 -18 -6 -40 -6 -49 0
-19 -25 -14 380 -75 129 -19 324 -49 432 -66 194 -30 203 -30 582 -30 336 0
387 2 400 16 17 16 20 42 8 60 -8 12 -193 145 -267 191 -75 47 -249 128 -340
157 -208 67 -310 76 -895 75 l-495 -1 -247 -73z m792 -120 l0 -95 -27 0 c-71
0 -73 4 -73 101 l0 89 50 0 50 0 0 -95z m640 71 c184 -38 391 -125 542 -226
l67 -45 -297 -2 -297 -2 -275 42 -275 43 -3 108 -3 109 233 -6 c151 -4 259
-11 308 -21z"/>
<path d="M1765 2771 c-140 -64 -172 -82 -179 -103 -8 -24 5 -44 155 -233 90
-114 173 -211 184 -215 22 -7 1625 -104 1631 -97 2 2 7 24 10 49 l6 45 -98 7
c-55 3 -398 24 -764 46 -366 22 -683 41 -705 42 -38 3 -44 8 -167 163 -70 87
-126 160 -125 161 1 2 57 27 124 57 l122 55 493 -74 c271 -41 623 -94 783
-118 159 -25 291 -43 294 -41 2 2 6 24 8 48 5 43 4 45 -23 51 -51 10 -1551
236 -1565 235 -8 0 -90 -35 -184 -78z"/>
</g>
</svg>
