<?xml version="1.0" standalone="no"?>
<!DOCTYPE svg PUBLIC "-//W3C//DTD SVG 20010904//EN"
 "http://www.w3.org/TR/2001/REC-SVG-20010904/DTD/svg10.dtd">
<svg version="1.0" xmlns="http://www.w3.org/2000/svg"
 width="512.000000pt" height="512.000000pt" viewBox="0 0 512.000000 512.000000"
 preserveAspectRatio="xMidYMid meet">

<g transform="translate(0.000000,512.000000) scale(0.100000,-0.100000)"
fill="#fff" stroke="none">
<path d="M500 4957 c-162 -55 -279 -170 -333 -327 l-22 -65 -3 -1895 c-2
-1322 0 -1914 8 -1958 29 -169 140 -301 308 -365 l57 -22 1420 -3 c954 -2
1446 1 1500 8 206 27 360 176 398 386 l13 68 58 15 c38 9 60 10 65 4 32 -50
382 -533 408 -563 82 -95 253 -136 375 -90 150 56 248 227 219 382 -16 89 -42
131 -202 333 -83 105 -180 227 -215 272 l-64 81 50 99 c27 54 62 139 77 188
24 82 27 105 27 260 1 148 -2 181 -22 255 -29 105 -97 252 -156 334 -133 187
-366 345 -568 388 l-58 12 0 213 0 212 333 3 c323 3 333 4 374 26 66 35 110
79 140 140 l28 57 0 580 c0 545 -1 584 -19 639 -39 116 -140 239 -245 295
-125 66 26 61 -2025 61 l-1861 -1 -65 -22z m3285 -191 c-24 -36 -54 -91 -67
-123 l-23 -58 -3 -902 -3 -903 -58 0 c-32 0 -98 -7 -146 -15 -212 -37 -387
-128 -541 -280 -290 -287 -381 -713 -231 -1085 145 -359 490 -606 875 -627
l104 -6 -7 -36 c-13 -70 -47 -131 -101 -180 -96 -88 39 -81 -1595 -81 -1423 0
-1449 0 -1502 20 -66 25 -132 88 -166 160 l-26 55 -3 1875 c-2 1318 1 1894 8
1941 22 129 106 235 226 284 l59 25 1622 0 1621 0 -43 -64z m25 -2160 c178
-32 322 -105 441 -226 83 -83 144 -178 184 -283 110 -295 64 -632 -121 -874
-162 -211 -408 -315 -708 -300 -130 7 -200 24 -315 78 -398 186 -589 628 -450
1043 95 286 337 501 629 561 85 17 246 18 340 1z"/>
<path d="M810 4502 c-19 -9 -45 -32 -57 -51 -21 -31 -23 -46 -23 -153 0 -137
12 -175 65 -208 32 -20 47 -20 1201 -20 1155 0 1169 0 1202 20 50 31 62 71 62
208 0 107 -2 122 -23 153 -49 74 41 69 -1242 69 -1075 0 -1152 -1 -1185 -18z"/>
<path d="M715 3685 c-50 -18 -91 -62 -105 -116 -7 -26 -10 -125 -8 -277 3
-224 4 -239 25 -272 12 -20 40 -46 62 -58 40 -22 45 -23 323 -20 281 3 283 3
317 27 64 46 71 76 71 349 0 219 -2 246 -19 280 -47 93 -78 101 -381 101 -186
0 -255 -3 -285 -14z m457 -232 c39 -35 25 -62 -102 -187 -139 -138 -141 -138
-227 -54 -67 66 -81 99 -59 133 24 37 71 34 113 -7 l33 -32 84 82 c89 87 120
100 158 65z"/>
<path d="M1765 3565 c-14 -13 -25 -36 -25 -50 0 -14 11 -37 25 -50 l24 -25
771 0 772 0 30 30 c24 25 29 36 24 58 -4 15 -16 35 -28 45 -19 16 -72 17 -795
17 l-774 0 -24 -25z"/>
<path d="M1761 3164 c-28 -35 -26 -69 4 -99 l24 -25 544 0 c531 0 545 0 570
20 14 11 29 29 32 40 7 23 -18 75 -40 84 -9 3 -263 6 -565 6 l-549 0 -20 -26z"/>
<path d="M733 2629 c-56 -13 -108 -63 -123 -118 -7 -29 -10 -122 -8 -280 l3
-238 27 -40 c47 -71 73 -77 318 -81 330 -6 377 4 427 93 23 39 23 46 21 296
-3 254 -3 256 -28 292 -13 20 -43 46 -65 59 -38 22 -49 23 -285 25 -135 1
-264 -3 -287 -8z m439 -236 c10 -9 18 -30 18 -47 0 -26 -18 -48 -114 -143
-139 -139 -141 -139 -234 -49 -53 51 -65 69 -65 94 0 69 64 85 120 30 l32 -31
85 81 c91 87 120 99 158 65z"/>
<path d="M1770 2500 c-30 -30 -27 -83 6 -109 26 -20 37 -21 419 -21 382 0 393
1 419 21 34 27 36 79 4 109 -21 19 -33 20 -425 20 -390 0 -404 -1 -423 -20z"/>
<path d="M1762 2097 c-36 -39 -25 -89 25 -115 15 -8 108 -12 301 -12 267 0
280 1 306 21 33 26 36 79 6 109 -19 19 -33 20 -318 20 l-299 0 -21 -23z"/>
<path d="M731 1560 c-44 -11 -81 -39 -106 -81 -19 -32 -20 -52 -20 -295 l0
-260 27 -41 c48 -72 60 -74 382 -71 323 3 320 3 364 88 21 42 22 55 22 285 0
278 -6 302 -81 352 l-42 28 -256 2 c-141 1 -271 -2 -290 -7z m441 -237 c39
-35 25 -62 -100 -186 -81 -79 -126 -117 -141 -117 -29 0 -147 112 -156 147 -4
16 0 34 10 49 23 36 70 32 112 -8 l33 -32 84 82 c89 87 120 100 158 65z"/>
<path d="M1772 1437 c-31 -33 -29 -80 4 -106 26 -20 37 -21 421 -21 l394 0 24
25 c34 33 33 77 -1 104 -26 20 -37 21 -424 21 l-397 0 -21 -23z"/>
<path d="M1761 1034 c-28 -35 -26 -69 4 -100 l25 -25 301 3 c284 3 301 4 315
22 21 29 18 82 -6 106 -19 19 -33 20 -319 20 l-300 0 -20 -26z"/>
<path d="M3549 2470 c-85 -14 -212 -64 -287 -114 -126 -84 -220 -203 -275
-350 -25 -68 -31 -100 -35 -198 -9 -222 48 -369 202 -524 77 -77 105 -98 186
-138 125 -61 213 -79 355 -73 188 9 312 64 451 203 66 66 90 98 128 175 103
209 103 422 -1 639 -38 79 -59 108 -132 180 -69 69 -103 95 -171 128 -47 23
-112 49 -145 57 -75 20 -203 27 -276 15z m227 -267 c102 -54 145 -160 113
-278 -8 -31 -33 -62 -109 -135 -91 -88 -99 -99 -105 -143 -10 -63 -53 -88 -89
-51 -46 46 0 149 118 261 83 80 86 85 86 127 0 25 -5 57 -12 71 -29 64 -160
85 -280 44 -73 -24 -105 -19 -114 18 -6 22 -1 31 26 55 56 46 103 58 220 55
84 -2 113 -7 146 -24z m-111 -728 c30 -30 32 -64 4 -99 -27 -34 -81 -36 -103
-4 -25 35 -20 83 10 107 35 27 59 26 89 -4z"/>
</g>
</svg>
