<?xml version="1.0" standalone="no"?>
<!DOCTYPE svg PUBLIC "-//W3C//DTD SVG 20010904//EN"
 "http://www.w3.org/TR/2001/REC-SVG-20010904/DTD/svg10.dtd">
<svg version="1.0" xmlns="http://www.w3.org/2000/svg"
 width="512.000000pt" height="512.000000pt" viewBox="0 0 512.000000 512.000000"
 preserveAspectRatio="xMidYMid meet">

<g transform="translate(0.000000,512.000000) scale(0.100000,-0.100000)"
fill="#fff" stroke="none">
<path d="M2809 5102 c-70 -24 -137 -69 -183 -125 -38 -46 -75 -121 -76 -149 0
-17 -20 -18 -289 -18 -275 0 -290 -1 -314 -20 -22 -17 -27 -30 -29 -78 l-3
-57 -270 -5 c-230 -4 -276 -8 -309 -23 -65 -29 -120 -82 -157 -149 l-34 -63
-3 -227 -4 -227 26 -26 c34 -34 78 -33 105 1 20 25 21 39 21 227 0 183 2 204
21 244 14 29 35 52 63 68 42 25 44 25 295 25 l252 0 -3 -77 -3 -78 -212 -3
-212 -2 -20 -27 c-21 -26 -21 -29 -21 -1308 l0 -1283 -27 -18 c-16 -10 -52
-40 -80 -67 l-53 -50 0 1037 0 1037 -25 24 c-31 32 -69 32 -100 0 l-25 -24 0
-1112 0 -1111 -40 -45 c-45 -52 -51 -87 -20 -121 14 -15 33 -22 57 -22 34 0
48 12 188 150 l150 150 220 -220 220 -220 -480 -480 c-415 -415 -484 -480
-510 -480 -24 0 -59 30 -219 189 -165 165 -189 193 -189 220 0 28 27 59 221
255 189 190 222 227 222 253 0 42 -33 73 -78 73 -35 0 -49 -12 -259 -223 -150
-150 -228 -235 -239 -262 -24 -56 -22 -140 4 -190 11 -22 111 -129 224 -241
165 -163 211 -203 244 -212 99 -29 158 -10 251 80 l72 71 46 -51 c27 -30 70
-63 103 -79 l57 -28 1540 0 1540 0 46 21 c81 38 144 106 180 194 12 29 15 228
19 1205 5 1076 7 1177 24 1255 25 117 25 362 0 480 -15 74 -18 163 -23 665
l-6 580 -26 55 c-31 66 -94 131 -157 162 -45 22 -58 23 -319 26 l-273 3 0 55
c0 45 -4 59 -25 79 l-24 25 -291 0 c-225 0 -290 3 -290 13 0 31 -63 141 -105
182 -98 98 -260 139 -386 97z m219 -156 c73 -37 132 -131 132 -208 0 -17 10
-39 25 -53 l24 -25 286 0 285 0 0 -179 0 -179 -80 24 c-150 43 -277 57 -470
51 -100 -4 -203 -12 -240 -21 -51 -12 -136 -15 -392 -16 -314 0 -329 -1 -348
-20 -25 -25 -26 -71 -1 -101 18 -23 27 -24 153 -29 l133 -5 -45 -26 c-25 -15
-72 -48 -104 -73 l-59 -46 -107 0 c-161 0 -150 -24 -150 330 l0 290 285 0 286
0 24 25 c18 17 25 35 25 63 0 83 70 176 157 208 47 18 138 12 181 -10z m1431
-461 c39 -20 78 -69 91 -113 7 -24 10 -154 8 -371 l-3 -334 -39 59 c-21 32
-56 80 -77 105 l-38 45 -3 211 c-3 191 -5 213 -22 232 -18 20 -28 21 -233 21
l-213 0 0 80 0 80 250 0 c201 0 257 -3 279 -15z m-964 -270 c426 -69 770 -317
963 -693 100 -195 144 -378 145 -602 0 -362 -131 -679 -388 -935 -254 -254
-571 -386 -930 -386 -217 1 -359 33 -575 129 -116 52 -131 56 -200 57 -113 0
-167 -29 -305 -165 l-111 -110 -109 110 -109 109 107 110 c140 145 162 187
162 306 0 88 -1 93 -51 200 -29 61 -61 140 -73 177 -148 484 -11 1011 353
1355 180 171 429 295 666 333 41 6 82 13 90 15 47 9 288 3 365 -10z m-1575
-90 c0 -97 32 -158 106 -201 25 -14 67 -29 93 -33 l49 -6 -62 -83 c-285 -377
-369 -878 -225 -1328 17 -52 50 -140 75 -193 47 -105 54 -150 30 -204 -8 -18
-70 -87 -138 -155 -112 -111 -129 -124 -179 -137 -29 -8 -57 -15 -61 -15 -5 0
-8 545 -8 1210 l0 1210 160 0 160 0 0 -65z m2330 -10 c0 -75 -7 -88 -30 -60
-7 9 -53 43 -102 75 l-89 60 110 0 111 0 0 -75z m300 -3835 c-14 -51 -46 -89
-94 -111 -39 -18 -102 -19 -1529 -19 -1320 0 -1492 2 -1525 15 -46 20 -77 48
-93 87 -12 29 -11 31 64 106 l77 77 0 -38 c0 -27 7 -45 25 -62 l24 -25 1420 0
c781 0 1427 3 1436 6 45 18 45 15 45 854 l0 790 43 53 c23 28 58 77 77 107
l35 55 3 -929 c1 -601 -1 -942 -8 -966z m-300 850 l0 -670 -1325 0 -1325 0 0
62 0 62 239 241 c265 267 255 252 302 448 l23 98 127 124 c169 165 202 174
352 99 380 -192 887 -191 1283 1 97 47 256 149 288 184 11 12 23 21 28 21 4 0
8 -301 8 -670z m-2371 386 l133 -133 -13 -57 c-7 -31 -15 -59 -19 -61 -3 -2
-86 76 -184 174 l-178 178 58 16 c33 8 61 15 64 16 3 1 65 -59 139 -133z"/>
<path d="M2875 4785 c-14 -13 -25 -36 -25 -50 0 -14 11 -37 25 -50 13 -14 36
-25 50 -25 14 0 37 11 50 25 14 13 25 36 25 50 0 14 -11 37 -25 50 -13 14 -36
25 -50 25 -14 0 -37 -11 -50 -25z"/>
<path d="M3084 4055 c-247 -45 -442 -149 -624 -334 -153 -155 -242 -312 -302
-528 -19 -67 -22 -105 -22 -273 -1 -218 10 -280 79 -448 71 -174 218 -364 373
-482 96 -73 287 -165 407 -196 194 -50 442 -44 635 17 479 151 810 602 810
1104 0 560 -407 1044 -958 1140 -102 18 -300 18 -398 0z m386 -151 c281 -53
531 -227 676 -470 103 -175 149 -354 141 -554 -7 -156 -32 -263 -96 -395 -300
-627 -1122 -773 -1612 -285 -136 135 -222 281 -271 460 -20 74 -23 107 -22
260 0 200 14 268 83 415 145 310 431 525 771 578 66 11 255 6 330 -9z"/>
<path d="M3716 3495 c-30 -10 -104 -78 -300 -274 -144 -144 -265 -261 -270
-261 -5 0 -66 55 -135 123 -139 136 -176 156 -266 144 -67 -10 -101 -31 -191
-121 -91 -91 -113 -126 -121 -196 -12 -99 1 -116 301 -419 292 -295 317 -314
411 -314 75 0 118 24 212 116 118 114 133 148 88 192 -43 44 -70 34 -160 -54
-95 -94 -126 -113 -164 -100 -15 5 -143 126 -284 267 -217 218 -257 262 -257
287 0 41 153 195 195 195 23 0 57 -28 185 -155 129 -127 162 -155 185 -155 24
0 76 47 325 295 247 246 301 295 324 295 22 0 47 -18 106 -76 43 -42 81 -87
85 -101 9 -38 -18 -72 -225 -278 -193 -193 -205 -209 -180 -254 5 -10 22 -24
39 -30 24 -10 34 -10 57 2 16 9 120 107 230 219 190 191 203 206 219 260 31
107 5 166 -126 293 -119 115 -181 137 -283 100z"/>
</g>
</svg>
