<?xml version="1.0" standalone="no"?>
<!DOCTYPE svg PUBLIC "-//W3C//DTD SVG 20010904//EN"
 "http://www.w3.org/TR/2001/REC-SVG-20010904/DTD/svg10.dtd">
<svg version="1.0" xmlns="http://www.w3.org/2000/svg"
 width="218.000000pt" height="216.000000pt" viewBox="0 0 218.000000 216.000000"
 preserveAspectRatio="xMidYMid meet">

<g transform="translate(0.000000,216.000000) scale(0.100000,-0.100000)"
fill="#1664ab" stroke="none">
<path d="M913 2113 c-36 -7 -46 -30 -54 -125 -4 -54 -13 -96 -21 -103 -7 -7
-60 -34 -117 -60 l-104 -47 -51 51 c-103 101 -127 99 -240 -20 -101 -105 -102
-121 -12 -216 l64 -68 -19 -35 c-19 -37 -41 -99 -59 -167 l-11 -43 -103 0
c-151 0 -151 -1 -151 -169 0 -168 -3 -164 146 -171 l111 -5 24 -83 c13 -46 33
-100 43 -120 l19 -37 -64 -68 c-55 -58 -64 -73 -64 -104 0 -34 9 -46 84 -120
110 -108 126 -110 221 -22 l66 62 98 -47 c54 -25 104 -46 110 -46 19 0 31 -48
31 -125 0 -110 10 -118 145 -123 126 -5 176 6 193 43 7 14 12 61 12 104 0 51
4 82 13 88 6 6 61 32 120 58 l108 47 64 -61 c84 -81 111 -81 199 -2 51 46 106
122 106 147 0 15 -23 51 -65 98 l-65 75 25 53 c13 29 31 83 40 120 l17 66 115
4 c96 2 117 6 128 21 29 41 29 253 0 294 -11 15 -32 19 -128 21 l-115 4 -17
66 c-9 37 -27 91 -40 120 l-25 53 65 75 c41 46 65 83 65 97 0 28 -41 87 -96
138 -97 90 -123 91 -210 7 l-64 -61 -99 46 c-54 26 -104 47 -110 47 -19 0 -31
38 -31 103 0 87 -14 123 -52 136 -29 10 -198 13 -245 4z m169 -212 c2 -52 9
-96 17 -105 7 -8 44 -25 82 -37 39 -12 118 -46 177 -75 72 -35 111 -50 122
-44 8 5 40 31 72 59 31 28 60 51 65 51 5 0 22 -13 38 -30 l28 -30 -56 -59
c-67 -70 -72 -97 -32 -187 14 -32 38 -102 54 -156 16 -55 32 -103 36 -106 4
-4 55 -9 113 -12 l107 -5 0 -55 0 -55 -90 -2 c-138 -4 -129 2 -165 -115 -18
-56 -45 -136 -61 -176 -19 -47 -27 -82 -23 -95 4 -12 32 -47 62 -79 l55 -58
-28 -30 c-34 -36 -46 -37 -71 -9 -10 12 -40 39 -67 60 l-47 38 -113 -54 c-62
-30 -141 -62 -176 -71 -81 -23 -93 -41 -99 -150 l-5 -84 -48 0 -49 0 0 79 c0
116 -6 126 -87 150 -37 11 -119 45 -182 75 l-114 55 -26 -19 c-14 -10 -44 -37
-66 -59 -21 -23 -44 -41 -50 -41 -6 0 -24 14 -40 30 l-29 30 41 43 c84 88 88
105 44 206 -17 37 -40 103 -51 146 -35 127 -32 125 -155 125 l-105 0 0 60 0
60 105 0 c123 0 120 -2 155 125 11 43 34 109 51 146 44 101 40 118 -44 206
l-41 43 29 30 c16 16 34 30 40 30 6 0 24 -14 41 -31 16 -17 46 -44 66 -60 l37
-30 93 47 c51 26 133 62 182 80 49 18 93 39 97 46 5 7 9 52 9 101 l0 87 49 0
49 0 4 -89z"/>
<path d="M915 1650 c-169 -41 -289 -138 -378 -305 l-42 -80 0 -155 0 -155 45
-85 c76 -144 203 -251 349 -294 71 -21 211 -21 282 0 176 52 321 185 386 355
26 69 24 297 -4 365 -59 149 -184 274 -335 335 -60 25 -234 35 -303 19z m215
-119 c36 -11 30 -48 -21 -125 -40 -62 -70 -86 -107 -86 -55 -1 -141 -65 -167
-125 -7 -16 -23 -40 -36 -51 -31 -28 -163 -78 -183 -71 -21 8 -20 47 3 135 44
169 172 296 323 321 65 11 154 12 188 2z m260 -188 c0 -18 -35 -38 -112 -65
-86 -29 -99 -20 -68 48 11 27 33 69 47 93 l25 43 54 -53 c30 -29 54 -59 54
-66z m-290 -169 c56 -54 16 -155 -63 -157 -55 -1 -87 33 -87 93 0 90 85 126
150 64z m361 -16 c25 -93 -31 -248 -126 -347 -99 -104 -223 -144 -374 -122
-107 16 -110 23 -57 101 60 90 77 103 144 111 103 12 187 87 199 178 7 49 22
64 99 96 87 36 101 34 115 -17z m-613 -170 c19 -19 15 -35 -22 -91 -62 -93
-70 -101 -93 -87 -27 17 -86 106 -81 121 5 16 124 67 159 68 14 1 30 -4 37
-11z"/>
</g>
</svg>
