<?xml version="1.0" standalone="no"?>
<!DOCTYPE svg PUBLIC "-//W3C//DTD SVG 20010904//EN"
 "http://www.w3.org/TR/2001/REC-SVG-20010904/DTD/svg10.dtd">
<svg version="1.0" xmlns="http://www.w3.org/2000/svg"
 width="512.000000pt" height="512.000000pt" viewBox="0 0 512.000000 512.000000"
 preserveAspectRatio="xMidYMid meet">

<g transform="translate(0.000000,512.000000) scale(0.100000,-0.100000)"
fill="#fff" stroke="none">
<path d="M1035 5098 c-38 -11 -72 -22 -74 -24 -4 -4 159 -648 169 -664 5 -8
25 -6 76 6 38 9 73 20 77 24 7 6 -122 540 -159 663 -6 20 -1 21 -89 -5z"/>
<path d="M3552 5084 c-35 -24 -41 -43 -67 -224 -14 -94 -30 -180 -35 -191 -18
-33 -56 -51 -90 -44 -26 6 -52 35 -146 160 -121 162 -148 184 -197 166 -15 -6
-84 -54 -154 -107 l-128 -96 -91 6 c-264 16 -552 -46 -801 -172 -159 -80 -281
-169 -408 -297 -265 -265 -420 -584 -467 -956 -11 -94 -13 -99 -36 -99 -13 0
-36 -12 -51 -27 -23 -24 -32 -50 -56 -170 -16 -79 -33 -143 -38 -143 -4 0 -60
37 -125 82 -168 118 -155 121 -342 -68 -127 -127 -150 -155 -150 -180 0 -22
25 -66 85 -155 47 -68 85 -126 85 -129 0 -3 -64 -19 -142 -35 -121 -24 -147
-33 -170 -56 l-28 -27 0 -197 0 -197 28 -27 c23 -23 49 -32 167 -56 77 -16
142 -30 144 -32 3 -2 -35 -62 -83 -133 -79 -116 -88 -132 -82 -162 5 -26 39
-66 149 -176 185 -185 171 -182 336 -68 69 47 127 86 131 86 3 0 19 -64 35
-142 24 -121 33 -147 56 -170 l27 -28 197 0 197 0 27 28 c23 23 32 49 56 170
16 78 32 142 35 142 4 0 62 -39 131 -86 155 -107 160 -107 265 -3 l72 71 4
-158 c3 -136 7 -166 25 -206 28 -62 66 -110 108 -139 l34 -23 3 -276 3 -275
28 -60 c36 -78 95 -137 171 -172 60 -27 65 -28 271 -31 228 -4 305 5 370 43
60 35 115 94 144 155 26 55 26 57 29 335 l4 280 39 28 c22 15 53 49 70 75 52
82 59 124 59 352 0 331 30 400 234 545 134 95 160 119 150 137 -5 8 -29 38
-55 65 l-45 51 -35 -29 c-18 -16 -76 -59 -127 -96 -146 -104 -218 -196 -264
-333 -19 -57 -22 -96 -27 -316 l-6 -251 -28 -36 c-53 -69 -42 -68 -485 -65
l-397 3 -33 23 c-63 46 -66 60 -73 342 -6 286 -14 323 -88 437 -49 75 -95 120
-211 203 -124 89 -188 144 -272 237 -175 193 -296 441 -349 718 -21 107 -18
408 5 515 92 430 345 779 712 982 192 106 389 165 617 183 74 6 77 5 77 -15 0
-30 10 -47 126 -202 107 -144 122 -179 91 -219 -31 -40 -48 -41 -242 -13 -204
29 -232 27 -254 -24 -18 -39 -86 -532 -78 -564 12 -45 45 -58 222 -84 91 -13
177 -27 191 -30 51 -13 71 -87 36 -130 -9 -12 -81 -69 -158 -127 -142 -106
-154 -119 -154 -162 0 -27 316 -457 349 -474 43 -23 69 -12 218 99 81 61 158
113 170 116 33 9 76 -9 93 -38 13 -24 12 -45 -9 -195 -12 -92 -21 -186 -19
-207 5 -66 24 -73 289 -111 278 -41 321 -43 349 -15 24 24 25 27 55 235 22
156 26 172 50 193 26 22 58 28 90 16 9 -4 64 -70 122 -148 58 -77 114 -149
125 -158 47 -41 73 -29 308 147 222 167 248 193 236 240 -3 12 -54 86 -114
166 -60 80 -112 154 -116 166 -9 29 8 69 39 89 25 16 36 16 215 -9 194 -27
221 -27 249 7 12 14 90 500 91 563 0 12 -10 34 -22 48 -21 24 -38 28 -217 54
-119 18 -198 34 -207 43 -23 23 -33 73 -20 99 6 13 72 70 146 126 150 114 180
143 180 178 0 16 -54 97 -151 227 -191 256 -193 258 -240 258 -32 0 -59 -16
-186 -110 -81 -61 -158 -113 -170 -116 -34 -9 -77 17 -89 54 -8 26 -5 68 13
190 28 197 28 215 1 247 -22 25 -37 28 -293 65 -148 22 -275 40 -280 40 -6 0
-21 -7 -33 -16z m445 -218 c3 -2 -3 -55 -12 -118 -24 -161 -22 -214 9 -275 61
-122 213 -175 331 -116 16 9 79 51 138 96 59 44 109 78 111 76 40 -51 188
-252 191 -262 3 -7 -37 -43 -91 -82 -158 -115 -196 -170 -196 -280 -1 -102 59
-192 150 -231 20 -8 97 -24 171 -35 74 -10 136 -21 138 -22 1 -2 -9 -75 -22
-162 -14 -88 -25 -163 -25 -166 0 -3 -57 3 -127 13 -71 11 -151 17 -179 15
-151 -15 -254 -155 -224 -304 9 -44 29 -77 101 -174 49 -65 89 -121 89 -123 0
-2 -60 -49 -134 -104 l-134 -101 -89 117 c-114 150 -153 177 -262 177 -91 -1
-140 -22 -195 -87 -43 -50 -60 -104 -77 -245 -7 -56 -15 -107 -19 -114 -6 -8
-48 -6 -169 11 -186 27 -169 9 -146 160 22 146 20 198 -13 261 -50 95 -144
147 -248 136 -66 -7 -95 -22 -222 -118 l-105 -79 -98 132 c-55 72 -99 135 -99
138 0 4 49 45 110 90 60 46 121 100 135 120 84 122 48 291 -79 365 -33 19 -78
30 -187 47 -79 11 -145 22 -147 23 -5 4 40 319 47 327 3 4 67 -2 141 -13 180
-26 243 -14 319 62 46 46 63 86 69 160 6 85 -12 125 -113 259 -42 55 -75 105
-73 110 3 8 253 200 262 200 2 0 42 -52 90 -115 47 -63 103 -126 124 -139 106
-69 231 -54 324 39 45 46 62 94 83 245 9 63 18 120 20 126 2 8 53 4 166 -13
89 -13 164 -25 166 -27z m-2973 -2175 c9 -30 16 -56 16 -57 0 -1 -24 -8 -52
-14 -205 -48 -369 -235 -393 -447 -21 -179 80 -384 233 -477 242 -147 541 -84
697 147 l32 48 29 -24 c16 -12 59 -44 95 -70 79 -55 139 -121 169 -184 l22
-46 -91 -91 -90 -90 -101 68 c-56 38 -118 73 -139 78 -70 18 -149 -20 -185
-90 -7 -15 -24 -78 -37 -139 l-23 -113 -102 0 -101 0 -17 85 c-36 182 -66 231
-156 255 -58 16 -97 1 -212 -77 l-99 -67 -76 77 -77 76 68 100 c37 55 72 117
76 138 20 84 -34 172 -121 197 -27 8 -88 23 -134 32 l-85 17 0 102 0 102 112
23 c62 12 125 28 139 36 65 33 105 118 90 185 -5 20 -38 81 -75 134 -36 53
-66 100 -66 104 0 3 34 40 75 81 l74 74 105 -72 c114 -77 151 -90 212 -73 67
18 113 74 129 156 8 40 8 39 25 -45 10 -47 25 -109 34 -139z m112 -283 c58
-115 123 -209 233 -337 l55 -63 -24 -45 c-32 -61 -110 -128 -178 -153 -46 -18
-72 -21 -137 -18 -134 7 -228 72 -287 196 -28 59 -30 69 -26 150 3 62 11 100
27 133 50 105 167 186 273 188 36 1 39 -2 64 -51z m1774 -1723 l0 -85 -340 0
-340 0 0 78 c0 43 3 82 7 85 3 4 156 7 340 7 l333 0 0 -85z m0 -317 c0 -77
-26 -134 -77 -168 -36 -25 -41 -25 -252 -28 -243 -3 -259 1 -314 69 -22 28
-30 51 -34 97 -9 100 -39 92 342 92 l335 0 0 -62z"/>
<path d="M3514 4295 c-207 -45 -377 -179 -468 -367 -53 -111 -69 -182 -69
-303 1 -182 67 -339 198 -471 68 -68 97 -89 176 -127 123 -59 181 -72 314 -71
89 1 125 6 190 27 186 61 325 183 411 361 127 263 60 593 -159 791 -75 68
-214 140 -312 160 -86 18 -199 18 -281 0z m259 -170 c181 -47 325 -190 373
-370 45 -165 -9 -355 -137 -483 -200 -200 -513 -198 -715 3 -201 201 -199 515
4 714 132 129 308 180 475 136z"/>
<path d="M274 4585 c-25 -36 -45 -67 -43 -69 36 -28 576 -409 584 -412 10 -4
111 124 103 131 -23 20 -583 415 -589 415 -4 0 -29 -29 -55 -65z"/>
<path d="M1872 4105 c-238 -174 -407 -436 -466 -725 -93 -458 95 -931 479
-1205 44 -32 148 -90 230 -130 138 -67 156 -79 217 -143 76 -81 124 -172 140
-265 19 -119 8 -107 101 -107 l83 0 -7 68 c-10 92 -18 126 -49 202 -35 87 -88
166 -158 234 -77 75 -113 99 -251 164 -150 70 -232 124 -324 212 -169 160
-280 384 -308 620 -40 352 114 715 394 923 37 27 67 53 67 58 0 7 -80 139 -84
139 -1 0 -30 -20 -64 -45z"/>
<path d="M423 3737 c-177 -45 -324 -85 -328 -88 -6 -7 24 -139 35 -152 5 -6
602 135 667 158 15 5 -25 165 -41 164 -6 0 -156 -38 -333 -82z"/>
<path d="M4190 1865 l0 -85 295 0 295 0 0 85 0 85 -295 0 -295 0 0 -85z"/>
<path d="M4100 1444 c-29 -36 -49 -69 -44 -73 5 -4 119 -99 253 -211 l245
-203 53 59 c29 32 53 62 53 66 0 6 -401 345 -491 415 -13 11 -24 3 -69 -53z"/>
<path d="M2490 1235 l0 -125 85 0 85 0 0 125 0 125 -85 0 -85 0 0 -125z"/>
<path d="M3680 980 l0 -300 85 0 85 0 -2 298 -3 297 -82 3 -83 3 0 -301z"/>
</g>
</svg>
