<svg xmlns="http://www.w3.org/2000/svg" xmlns:xlink="http://www.w3.org/1999/xlink" viewBox="0 0 18.69 16.99"><defs><style>.cls-1{fill:none;}.cls-2{clip-path:url(#clip-path);}.cls-3{fill:#1664AB;}</style><clipPath id="clip-path" transform="translate(0)"><rect class="cls-1" width="18.7" height="17.03"/></clipPath></defs><g id="Capa_2" data-name="Capa 2"><g id="Mapa_del_sitio" data-name="Mapa del sitio"><g class="cls-2"><path class="cls-3" d="M15.65,17H3A3,3,0,0,1,.41,12.43L6.71,1.52a3,3,0,0,1,5.27,0l6.3,10.91A3,3,0,0,1,15.65,17ZM9.34.87A2.14,2.14,0,0,0,7.47,2L1.17,12.87A2.17,2.17,0,0,0,3,16.12H15.65a2.17,2.17,0,0,0,1.87-3.25L11.22,2A2.14,2.14,0,0,0,9.34.87ZM17,12.92,10.89,2.39a1.79,1.79,0,0,0-3.09,0L1.73,12.92a1.72,1.72,0,0,0,0,1.78,1.74,1.74,0,0,0,1.54.89H15.42A1.74,1.74,0,0,0,17,14.7a1.72,1.72,0,0,0,0-1.78ZM8.24,5.68a1.11,1.11,0,0,1,2.21,0V9.25a1.11,1.11,0,0,1-2.21,0Zm1.1,7.92a1.13,1.13,0,1,1,1.13-1.13A1.13,1.13,0,0,1,9.34,13.6Z" transform="translate(0)"/></g></g></g></svg>