<?xml version="1.0" standalone="no"?>
<!DOCTYPE svg PUBLIC "-//W3C//DTD SVG 20010904//EN"
 "http://www.w3.org/TR/2001/REC-SVG-20010904/DTD/svg10.dtd">
<svg version="1.0" xmlns="http://www.w3.org/2000/svg"
 width="841.000000pt" height="168.000000pt" viewBox="0 0 841.000000 168.000000"
 preserveAspectRatio="xMidYMid meet">

<g transform="translate(0.000000,168.000000) scale(0.100000,-0.100000)"
fill="#1664ab" stroke="none">
<path d="M665 1586 c-16 -11 -20 -30 -23 -91 -4 -66 -7 -78 -24 -83 -10 -2
-50 -19 -87 -37 l-69 -33 -48 49 c-67 68 -83 66 -167 -19 -83 -84 -85 -98 -16
-168 l51 -51 -20 -39 c-11 -22 -25 -63 -33 -91 l-13 -53 -82 0 c-111 0 -114
-4 -114 -130 0 -127 3 -130 115 -130 l83 0 12 -47 c6 -27 20 -68 31 -92 l20
-45 -51 -51 c-68 -69 -67 -84 18 -168 84 -83 99 -85 167 -17 l50 49 56 -28
c30 -15 70 -33 87 -39 32 -11 32 -11 32 -81 0 -102 11 -111 135 -111 124 0
135 9 135 111 0 70 0 70 32 81 17 6 57 24 87 39 l56 28 50 -49 c69 -68 84 -66
168 18 83 84 85 98 17 167 l-51 51 20 45 c11 24 25 65 31 92 l12 47 83 0 c112
0 115 3 115 130 0 127 -3 130 -115 130 l-83 0 -12 48 c-6 26 -20 67 -31 91
l-20 45 51 51 c68 69 67 84 -18 168 -84 83 -99 85 -167 17 l-50 -49 -65 33
c-36 18 -75 35 -88 38 -20 6 -22 12 -22 77 0 101 -11 111 -133 111 -64 0 -99
-4 -112 -14z m145 -155 c0 -79 4 -85 81 -107 30 -9 86 -33 126 -55 40 -21 77
-39 83 -39 6 0 33 21 61 47 l49 46 25 -23 25 -24 -45 -46 c-52 -53 -55 -71
-21 -138 13 -26 31 -78 41 -117 9 -38 22 -76 27 -82 7 -9 38 -13 89 -13 l79 0
0 -40 0 -40 -79 0 c-51 0 -82 -4 -89 -12 -5 -7 -17 -42 -26 -78 -9 -36 -28
-89 -41 -119 -14 -29 -25 -63 -25 -74 0 -12 20 -42 45 -67 l45 -46 -25 -24
-25 -23 -49 46 c-28 26 -54 47 -59 47 -5 0 -48 -20 -95 -44 -47 -24 -103 -47
-124 -51 -61 -11 -73 -28 -73 -107 l0 -68 -35 0 -35 0 0 68 c0 79 -12 96 -73
107 -21 4 -77 27 -124 51 -47 24 -90 44 -95 44 -5 0 -31 -21 -59 -47 l-49 -46
-25 23 -25 24 45 46 c52 53 55 71 21 138 -13 26 -31 79 -41 117 -9 39 -22 76
-27 83 -7 8 -38 12 -89 12 l-79 0 0 40 0 40 79 0 c51 0 82 4 89 13 5 6 18 44
27 82 10 39 28 91 41 117 34 67 31 85 -21 138 l-45 46 25 24 25 23 49 -46 c28
-26 55 -47 61 -47 6 0 43 18 83 39 40 22 96 46 126 55 77 22 81 28 81 107 l0
69 35 0 35 0 0 -69z"/>
<path d="M671 1244 c-123 -33 -218 -113 -274 -232 -30 -62 -32 -75 -32 -172 0
-97 2 -110 32 -172 81 -173 262 -271 440 -241 142 25 254 110 316 241 30 62
32 75 32 172 0 97 -2 110 -32 172 -89 188 -288 284 -482 232z m183 -90 c23 -9
20 -22 -22 -89 -33 -52 -43 -61 -71 -63 -60 -5 -123 -52 -141 -107 -9 -27 -21
-36 -78 -59 -94 -36 -96 -36 -88 25 18 135 98 241 212 283 40 15 159 21 188
10z m186 -135 c8 -13 -3 -21 -61 -44 -94 -36 -102 -27 -54 60 l38 66 34 -33
c19 -18 39 -40 43 -49z m-219 -127 c31 -26 31 -78 0 -104 -50 -39 -111 -11
-111 52 0 63 61 91 111 52z m274 -13 c17 -77 -25 -198 -94 -266 -60 -60 -121
-87 -208 -91 -70 -4 -143 11 -143 29 0 5 19 35 43 68 39 55 44 59 83 59 87 1
164 74 164 157 0 19 11 28 63 48 81 33 84 33 92 -4z m-455 -134 c10 -12 6 -25
-26 -71 -21 -30 -42 -58 -47 -61 -11 -7 -43 23 -67 64 -18 31 -19 34 -2 40 9
3 37 14 62 24 56 22 64 23 80 4z"/>
<path d="M3390 1301 c-214 -44 -422 -396 -408 -690 3 -73 9 -95 32 -135 71
-121 233 -110 382 26 150 138 230 339 222 563 -3 94 -7 116 -28 154 -39 70
-113 100 -200 82z m50 -267 c23 -22 19 -144 -7 -229 -51 -164 -177 -261 -250
-193 -19 17 -23 32 -23 78 0 209 184 435 280 344z"/>
<path d="M8055 1293 c-16 -1 -58 -6 -92 -9 l-61 -5 -32 -169 -32 -168 -37 -6
c-20 -3 -48 -6 -64 -6 -23 0 -27 3 -22 23 2 12 19 87 36 166 17 79 33 149 35
155 5 12 -87 12 -161 1 l-31 -5 -23 -143 c-23 -146 -118 -675 -127 -714 l-6
-21 89 19 c48 11 91 23 94 27 4 4 21 84 39 178 l32 172 60 6 c33 4 61 6 63 4
2 -2 -12 -79 -31 -172 -19 -93 -34 -176 -34 -184 0 -12 14 -13 83 -7 45 4 85
10 89 14 5 4 26 114 48 245 38 228 101 530 120 582 5 13 6 23 2 23 -4 -1 -20
-4 -37 -6z"/>
<path d="M4222 1279 c-179 -23 -339 -249 -372 -528 -21 -170 16 -296 100 -339
75 -38 150 -19 238 61 45 42 122 150 122 172 0 6 -30 23 -66 38 -59 23 -66 24
-71 9 -12 -34 -45 -73 -75 -88 -28 -14 -31 -14 -50 3 -17 15 -20 27 -15 78 10
119 91 310 154 366 33 28 35 29 61 14 25 -15 32 -15 97 3 64 17 70 21 73 47 5
37 -23 106 -52 134 -31 29 -77 39 -144 30z"/>
<path d="M6331 1274 c-79 -8 -146 -16 -148 -17 -6 -7 -161 -852 -157 -856 2
-2 89 9 193 24 l189 28 6 30 c3 16 6 47 6 68 0 36 -2 39 -22 34 -44 -10 -143
-23 -147 -19 -7 6 32 215 41 220 5 3 42 8 84 11 41 3 76 9 78 12 2 3 7 32 11
65 l7 58 -81 -7 c-77 -7 -81 -6 -81 13 0 18 19 119 35 190 5 21 10 22 94 22
l89 0 16 65 c9 35 16 67 16 70 0 7 -64 4 -229 -11z"/>
<path d="M7098 1279 c-113 -18 -226 -118 -295 -260 -63 -130 -77 -193 -78
-344 0 -117 2 -135 24 -178 56 -114 152 -135 272 -59 25 16 61 49 81 73 37 47
93 138 87 143 -2 1 -33 14 -69 28 l-65 26 -11 -27 c-11 -26 -77 -91 -92 -91
-5 0 -17 6 -27 14 -60 43 52 388 149 460 25 19 26 19 46 1 19 -17 22 -17 92 1
l73 19 3 45 c5 76 -43 138 -118 152 -14 3 -46 2 -72 -3z"/>
<path d="M2365 1268 l-51 -9 -33 -192 c-18 -106 -53 -293 -77 -417 -24 -124
-44 -234 -44 -244 0 -17 6 -18 85 -14 141 9 269 83 370 213 85 109 155 292
155 406 0 121 -46 215 -123 250 -47 21 -189 25 -282 7z m170 -163 c62 -25 69
-83 30 -221 -34 -118 -94 -238 -150 -299 l-46 -50 6 59 c3 33 28 162 55 288
28 126 50 231 50 234 0 8 21 4 55 -11z"/>
<path d="M4792 1270 c-40 -5 -75 -10 -76 -12 -12 -13 -126 -686 -126 -741 0
-60 50 -119 115 -136 84 -22 198 14 267 86 62 64 83 127 138 413 28 146 57
296 65 334 l13 68 -37 -6 c-20 -3 -61 -6 -92 -6 l-55 0 -13 -77 c-31 -188
-111 -575 -125 -601 -8 -16 -22 -34 -30 -41 -21 -18 -53 -5 -60 24 -4 14 23
164 64 357 38 183 70 336 70 340 0 9 -13 9 -118 -2z"/>
<path d="M5730 1268 c-58 -5 -144 -7 -192 -5 l-88 3 -1 -63 c-1 -35 -2 -69 -3
-75 -1 -9 18 -14 57 -16 l58 -3 -6 -32 c-34 -212 -63 -370 -91 -506 -19 -91
-32 -166 -29 -169 6 -6 177 19 194 28 11 6 24 70 46 213 18 112 42 261 55 329
l23 125 56 9 55 9 17 83 16 82 -31 -1 c-17 -1 -78 -6 -136 -11z"/>
</g>
</svg>
