<svg xmlns="http://www.w3.org/2000/svg" viewBox="0 0 315 215" class="svg-logo" width="800" height="500" style="height: auto;"><rect rx="10" ry="10" width="100%" height="100%" fill="rgba(16, 53, 167, 1.0)"></rect><g data-element="wrapper" transform="translate(52.62499999999852 57.99999999999898) scale(0.55000000000000934)"><g><g data-element="icon" transform="scale(0.1630729814355537) translate(665.8257233114804 739.4119354026284)"><path id="color_x5F_1" d="M540.432,410.973h-35.396V166.63c0-12.841-10.446-23.286-23.288-23.286H118.258    c-12.838,0-23.283,10.445-23.283,23.286v244.343H59.568c-11.132,0-20.188,9.057-20.188,20.189v5.301    c0,11.133,9.056,20.193,20.188,20.193h480.863c11.132,0,20.188-9.061,20.188-20.193v-5.301    C560.619,420.029,551.563,410.973,540.432,410.973z M105.938,166.63c0-6.792,5.527-12.318,12.32-12.318h363.489    c6.792,0,12.319,5.526,12.319,12.318v248.694H105.938V166.63z M327.106,423.258v1.479c0,1.799-1.468,3.264-3.265,3.264h-47.678    c-1.797,0-3.264-1.465-3.264-3.264v-1.479H327.106z M548.336,436.463c0,4.361-3.543,7.904-7.904,7.904H59.568    c-4.359,0-7.904-3.543-7.904-7.904v-5.301c0-4.359,3.545-7.904,7.904-7.904h205.396v1.479c0,6.172,5.027,11.199,11.199,11.199    h47.678c6.172,0,11.199-5.027,11.199-11.199v-1.479h205.391c4.361,0,7.904,3.545,7.904,7.904V436.463z M125.744,177.977h348.518    v221.379H125.744V177.977z M294.855,166.539c0-2.841,2.305-5.146,5.145-5.146c2.842,0,5.146,2.306,5.146,5.146    c0,2.842-2.305,5.146-5.146,5.146C297.16,171.686,294.855,169.381,294.855,166.539z M100.844,433.545    c0,1.623-1.312,2.938-2.935,2.938H85.615c-1.627,0-2.945-1.314-2.945-2.938s1.318-2.946,2.945-2.946h12.294    C99.532,430.599,100.844,431.922,100.844,433.545z" fill="rgba(170, 191, 255, 1.0)"></path></g><text transform="translate(-58.5 84.95364379882812)" fill="rgba(170, 191, 255, 1.0)" font-family="Rubik Mono One" font-size="130" data-element="company-name" dx="0 0 0 0 0 0 0 0">Docutech</text><text transform="translate(+15 127.95364379882812)" fill="rgba(170, 191, 255, 1.0)" font-family="Ubuntu" font-size="28.8" data-element="slogan" dx="0 0 0 0 0 0 0 0 0 0 0 0 0 0 0 0 0 0 0 0 0 0 0 0">Gestor de mantenimientos</text></g></g></svg>