<?xml version="1.0" standalone="no"?>
<!DOCTYPE svg PUBLIC "-//W3C//DTD SVG 20010904//EN"
 "http://www.w3.org/TR/2001/REC-SVG-20010904/DTD/svg10.dtd">
<svg version="1.0" xmlns="http://www.w3.org/2000/svg"
 width="256.000000pt" height="256.000000pt" viewBox="0 0 256.000000 256.000000"
 preserveAspectRatio="xMidYMid meet">

<g transform="translate(0.000000,256.000000) scale(0.100000,-0.100000)"
fill="#fff" stroke="none">
<path d="M909 2510 c-215 -37 -400 -131 -557 -284 -192 -186 -296 -416 -309
-682 -14 -284 69 -522 256 -742 111 -132 332 -268 506 -312 290 -75 599 -23
844 141 l63 42 74 -74 c41 -40 74 -79 74 -87 0 -7 7 -27 16 -45 22 -44 360
-384 406 -408 138 -71 290 81 219 219 -11 20 -102 119 -203 219 -147 146 -191
183 -225 193 -29 9 -62 33 -113 85 l-73 73 42 63 c164 245 216 554 141 844
-29 114 -116 284 -195 382 -154 191 -382 326 -622 368 -90 16 -265 18 -344 5z
m363 -96 c377 -78 676 -393 738 -778 19 -116 8 -301 -24 -409 -50 -168 -132
-302 -257 -423 -119 -114 -235 -181 -396 -231 -80 -24 -103 -27 -253 -27 -183
-1 -240 9 -382 69 -260 110 -471 355 -543 631 -87 334 20 702 272 935 228 210
540 297 845 233z m613 -1684 l49 -50 -27 -27 -27 -28 -52 52 -52 52 24 26 c13
14 26 25 30 25 3 0 28 -23 55 -50z m353 -292 c101 -101 188 -193 193 -205 21
-54 -37 -117 -96 -106 -13 3 -104 86 -209 192 -206 207 -212 217 -157 272 55
54 65 49 269 -153z"/>
<path d="M895 2336 c-174 -40 -327 -127 -451 -259 -93 -98 -151 -195 -195
-327 -41 -123 -51 -298 -25 -431 87 -429 470 -723 905 -696 374 24 676 273
783 644 19 65 23 101 22 223 -1 127 -4 156 -27 233 -90 296 -308 513 -599 598
-94 27 -323 36 -413 15z m333 -82 c151 -31 264 -90 380 -198 291 -275 332
-701 97 -1031 -161 -226 -452 -353 -730 -316 -407 55 -705 411 -682 816 7 121
25 195 76 300 107 224 307 380 551 430 90 18 216 18 308 -1z"/>
<path d="M1026 2095 c-22 -8 -50 -24 -62 -37 -12 -13 -122 -201 -243 -418
-208 -371 -221 -398 -221 -446 0 -56 24 -101 73 -138 28 -20 40 -21 480 -24
507 -3 513 -3 565 66 23 30 27 45 27 96 -1 61 -2 64 -209 431 -114 204 -218
387 -232 407 -39 61 -110 86 -178 63z m107 -107 c46 -63 437 -774 437 -796 0
-11 -11 -34 -24 -49 l-24 -28 -419 -3 c-230 -2 -433 0 -451 3 -41 8 -72 41
-72 77 0 29 403 762 443 806 32 34 80 30 110 -10z"/>
<path d="M1046 1844 c-14 -13 -16 -47 -16 -214 0 -192 1 -199 22 -214 15 -11
26 -12 40 -5 17 9 18 26 18 217 0 208 -4 232 -36 232 -7 0 -20 -7 -28 -16z"/>
<path d="M1040 1301 c-21 -40 20 -77 58 -52 8 5 12 21 10 37 -2 23 -9 30 -30
32 -19 2 -30 -3 -38 -17z"/>
<path d="M555 1956 c-96 -103 -155 -228 -177 -381 -14 -99 -7 -120 38 -120 29
0 29 1 41 85 6 47 17 103 24 125 20 70 75 168 128 228 54 62 63 90 32 107 -29
15 -31 14 -86 -44z"/>
</g>
</svg>
