<?xml version="1.0" standalone="no"?>
<!DOCTYPE svg PUBLIC "-//W3C//DTD SVG 20010904//EN"
 "http://www.w3.org/TR/2001/REC-SVG-20010904/DTD/svg10.dtd">
<svg version="1.0" xmlns="http://www.w3.org/2000/svg"
 width="512.000000pt" height="512.000000pt" viewBox="0 0 512.000000 512.000000"
 preserveAspectRatio="xMidYMid meet">

<g transform="translate(0.000000,512.000000) scale(0.100000,-0.100000)"
fill="#fff" stroke="none">
<path d="M794 5109 c-59 -17 -126 -71 -158 -129 l-31 -55 0 -2365 0 -2365 31
-55 c33 -60 99 -112 162 -130 51 -14 3473 -14 3524 0 63 18 129 70 162 130
l31 55 3 1108 2 1107 -24 25 c-30 30 -65 32 -97 6 l-24 -19 -5 -1101 -5 -1101
-33 -32 -32 -33 -1740 0 -1740 0 -32 33 -33 32 -3 2095 -2 2095 1810 0 1810 0
0 -850 0 -851 25 -24 c31 -32 69 -32 101 0 l24 25 -2 1107 -3 1108 -31 55
c-33 60 -99 112 -162 130 -47 13 -3483 12 -3528 -1z m356 -344 l0 -205 -201 0
-200 0 3 169 c3 165 4 170 28 196 14 15 34 31 45 35 11 5 89 9 173 9 l152 1 0
-205z m3182 167 l33 -32 3 -170 3 -170 -1535 0 -1536 0 0 205 0 205 1500 -2
1500 -3 32 -33z"/>
<path d="M1542 4817 c-31 -33 -29 -80 4 -106 27 -21 27 -21 1280 -21 915 0
1260 3 1278 11 49 23 53 104 7 128 -14 8 -412 11 -1284 11 l-1264 0 -21 -23z"/>
<path d="M2310 4216 c-261 -97 -450 -311 -505 -574 -8 -37 -15 -110 -15 -162
0 -345 219 -635 560 -741 98 -31 299 -34 400 -6 139 38 249 102 353 204 149
147 227 335 227 543 0 221 -71 390 -230 551 -73 74 -100 93 -192 139 -70 35
-123 54 -156 58 -44 4 -51 2 -70 -23 -47 -59 -21 -100 83 -135 81 -27 200
-105 255 -167 103 -117 150 -236 158 -393 5 -121 -10 -195 -60 -300 l-30 -65
-14 59 c-8 32 -23 74 -35 92 -29 47 -104 111 -147 125 -53 17 -55 20 -30 70
32 62 32 193 1 261 -29 63 -96 134 -158 166 -44 24 -62 27 -145 27 -84 0 -101
-3 -145 -27 -65 -34 -128 -100 -157 -163 -32 -71 -32 -201 0 -264 25 -50 23
-53 -30 -70 -43 -14 -118 -78 -147 -125 -12 -18 -27 -60 -35 -92 l-14 -59 -30
65 c-50 105 -65 179 -60 300 6 129 36 224 103 322 77 111 190 198 312 239 102
34 128 75 82 133 -23 30 -69 34 -129 12z m317 -427 c61 -23 112 -100 113 -168
0 -52 -37 -118 -83 -149 -87 -58 -210 -24 -256 70 -36 75 -21 158 41 215 44
41 124 55 185 32z m234 -522 c56 -37 70 -77 67 -191 l-3 -100 -53 -32 c-95
-57 -182 -79 -312 -79 -100 0 -126 4 -195 28 -44 15 -101 41 -127 57 l-48 30
0 98 c0 112 15 153 69 189 33 22 40 23 301 23 261 0 268 -1 301 -23z"/>
<path d="M1106 2456 c-21 -13 -49 -41 -62 -62 -24 -39 -24 -40 -24 -379 0
-334 1 -341 23 -380 13 -22 40 -49 62 -62 40 -23 43 -23 460 -23 417 0 420 0
460 23 22 13 49 40 62 62 22 39 23 46 23 378 0 318 -1 340 -20 377 -12 24 -37
49 -63 65 l-44 25 -419 0 -419 0 -39 -24z m849 -441 l0 -310 -390 0 -390 0 -3
300 c-1 165 0 306 3 313 3 10 86 12 392 10 l388 -3 0 -310z"/>
<path d="M1611 2106 l-76 -75 -47 45 c-54 51 -87 56 -123 19 -44 -43 -34 -69
58 -162 113 -113 111 -113 254 30 124 124 134 146 88 192 -41 42 -69 34 -154
-49z"/>
<path d="M2373 2383 c-50 -10 -70 -86 -33 -123 20 -20 33 -20 835 -20 802 0
815 0 835 20 38 38 22 100 -31 119 -23 8 -264 11 -808 10 -427 -1 -786 -4
-798 -6z"/>
<path d="M2346 2069 c-34 -27 -36 -77 -3 -107 l23 -22 806 0 c800 0 805 0 832
21 36 28 36 80 0 108 -27 21 -32 21 -829 21 -797 0 -802 0 -829 -21z"/>
<path d="M2340 1770 c-27 -27 -26 -81 1 -106 20 -18 49 -19 836 -19 l815 0 19
24 c25 30 24 76 -1 101 -20 20 -33 20 -835 20 -802 0 -815 0 -835 -20z"/>
<path d="M1125 1346 c-36 -15 -92 -77 -100 -109 -3 -12 -5 -175 -3 -363 l3
-341 28 -36 c56 -74 43 -72 512 -72 469 0 456 -2 512 72 l28 36 3 341 c2 188
0 351 -3 363 -8 33 -65 94 -102 109 -46 20 -834 19 -878 0z m833 -450 c2 -241
-1 -311 -10 -318 -15 -9 -738 -11 -762 -2 -14 5 -16 42 -16 313 0 169 3 311 7
314 4 4 180 6 392 5 l386 -3 3 -309z"/>
<path d="M1690 1053 c-8 -3 -47 -36 -85 -74 l-71 -69 -29 31 c-60 62 -118 72
-150 26 -30 -43 -19 -68 68 -155 113 -113 111 -113 255 31 123 124 134 146 87
192 -23 24 -44 29 -75 18z"/>
<path d="M2340 1240 c-27 -27 -26 -81 1 -106 20 -18 49 -19 836 -19 l815 0 19
24 c25 30 24 76 -1 101 -20 20 -33 20 -835 20 -802 0 -815 0 -835 -20z"/>
<path d="M2370 963 c-52 -19 -68 -85 -30 -123 20 -20 33 -20 835 -20 802 0
815 0 835 20 25 25 26 71 1 101 l-19 24 -804 2 c-441 1 -810 -1 -818 -4z"/>
<path d="M2342 647 c-31 -33 -29 -80 4 -106 27 -21 32 -21 829 -21 797 0 802
0 829 21 34 27 36 77 3 107 l-23 22 -810 0 -811 0 -21 -23z"/>
</g>
</svg>
