<?xml version="1.0" standalone="no"?>
<!DOCTYPE svg PUBLIC "-//W3C//DTD SVG 20010904//EN"
 "http://www.w3.org/TR/2001/REC-SVG-20010904/DTD/svg10.dtd">
<svg version="1.0" xmlns="http://www.w3.org/2000/svg"
 width="128.000000pt" height="128.000000pt" viewBox="0 0 128.000000 128.000000"
 preserveAspectRatio="xMidYMid meet">

<g transform="translate(0.000000,128.000000) scale(0.100000,-0.100000)"
fill="#000000" stroke="none">
<path d="M759 1116 c-16 -8 -25 -22 -27 -44 -3 -26 2 -35 27 -50 22 -13 27
-22 20 -32 -5 -8 -7 -26 -4 -41 5 -22 0 -27 -47 -47 -29 -12 -68 -36 -87 -52
-33 -30 -35 -30 -150 -30 -79 0 -157 8 -245 25 -131 24 -166 22 -166 -9 0 -19
37 -49 168 -137 97 -66 152 -119 152 -149 0 -5 -9 -14 -19 -20 -16 -8 -30 -4
-68 16 -67 36 -161 32 -222 -10 -57 -40 -95 -119 -89 -186 19 -197 269 -264
383 -102 26 38 30 52 30 112 0 64 2 70 26 84 24 14 28 14 39 1 10 -12 39 -15
139 -15 69 0 131 4 137 8 6 4 23 31 38 60 24 47 25 53 10 59 -18 7 -26 -2 -56
-56 l-17 -31 -109 0 -110 0 -51 75 -52 75 39 0 c39 0 39 0 38 -39 0 -25 6 -47
17 -59 57 -63 157 -16 145 67 -4 28 -2 31 23 31 19 0 46 18 97 65 54 50 71 61
76 49 11 -28 6 -54 -16 -94 -19 -32 -21 -41 -10 -52 10 -10 17 -7 35 16 l23
28 13 -42 c12 -41 12 -43 -17 -74 -45 -47 -63 -92 -63 -151 0 -67 22 -116 73
-160 102 -87 265 -51 322 70 34 72 18 172 -38 233 -26 30 -88 62 -118 62 -13
0 -28 4 -35 8 -11 7 -43 83 -43 103 0 27 119 -13 179 -60 66 -52 150 -36 123
24 -13 28 -90 87 -103 79 -16 -9 -10 -22 29 -58 46 -45 22 -49 -33 -6 -45 36
-133 70 -180 70 -24 0 -35 5 -35 15 0 12 9 13 48 8 26 -3 64 -12 86 -19 38
-14 56 -11 56 7 0 14 -79 49 -112 49 -49 0 -55 7 -50 58 3 41 0 52 -23 80 -15
18 -33 32 -41 32 -7 0 -27 14 -44 30 -17 17 -35 30 -40 30 -6 0 -5 9 2 20 16
25 0 70 -28 81 -12 4 -31 2 -45 -5z m36 -56 c-5 -8 -11 -8 -17 -2 -6 6 -7 16
-3 22 5 8 11 8 17 2 6 -6 7 -16 3 -22z m133 -380 c104 -329 100 -314 87 -320
-5 -3 -53 132 -107 299 -86 272 -104 342 -78 314 4 -4 48 -136 98 -293z m12
173 c0 -44 -14 -42 -28 6 -17 57 -16 67 8 46 12 -11 20 -31 20 -52z m-130 -17
l12 -44 -68 -66 -69 -65 -76 -1 c-56 0 -80 4 -89 15 -11 13 -5 15 45 15 77 0
96 17 88 75 -5 38 -3 44 25 64 33 23 90 50 108 51 6 0 17 -20 24 -44z m-546
-35 c87 -18 90 -20 150 -80 l61 -61 -48 0 c-42 0 -59 8 -155 71 -59 40 -111
76 -116 80 -14 13 7 11 108 -10z m346 -46 c0 -24 -2 -25 -73 -25 -65 0 -76 3
-97 25 l-23 25 96 0 c97 0 97 0 97 -25z m-12 -147 c21 -21 14 -57 -14 -70 -23
-11 -29 -10 -45 11 -23 28 -23 35 -3 55 18 19 45 21 62 4z m-306 -94 c30 -16
31 -17 13 -30 -11 -8 -26 -12 -35 -8 -90 36 -180 -20 -180 -112 0 -36 6 -51
33 -80 61 -66 155 -54 193 25 9 20 22 47 28 60 18 39 36 38 36 -3 0 -96 -72
-168 -170 -168 -173 0 -232 233 -80 313 43 23 120 25 162 3z m791 5 c62 -32
99 -89 99 -154 0 -110 -102 -190 -208 -164 -124 32 -169 198 -76 282 19 17 20
17 25 -4 3 -12 -3 -34 -14 -52 -36 -60 -13 -139 50 -172 89 -46 195 32 177
130 -8 40 -54 95 -80 95 -13 0 -36 28 -36 44 0 10 40 7 63 -5z m-643 -18 c0
-13 -223 -150 -233 -144 -13 8 9 25 118 92 102 62 115 68 115 52z m-210 -58
c-1 -5 -15 -17 -33 -28 -42 -27 -48 -67 -13 -90 24 -16 28 -16 66 4 45 23 52
12 15 -24 -28 -29 -54 -31 -94 -10 -58 30 -56 108 4 143 23 13 55 16 55 5z
m870 -79 c0 -34 -51 -84 -85 -84 -34 0 -85 50 -85 84 0 39 17 40 30 1 13 -39
41 -59 70 -50 31 10 43 41 31 77 -17 48 -13 55 14 25 14 -15 25 -39 25 -53z"/>
</g>
</svg>
