<?xml version="1.0" standalone="no"?>
<!DOCTYPE svg PUBLIC "-//W3C//DTD SVG 20010904//EN"
 "http://www.w3.org/TR/2001/REC-SVG-20010904/DTD/svg10.dtd">
<svg version="1.0" xmlns="http://www.w3.org/2000/svg"
 width="512.000000pt" height="512.000000pt" viewBox="0 0 512.000000 512.000000"
 preserveAspectRatio="xMidYMid meet">

<g transform="translate(0.000000,512.000000) scale(0.100000,-0.100000)"
fill="#fff" stroke="none">
<path d="M25 4936 l-25 -25 0 -2351 0 -2351 25 -25 24 -24 2023 3 c2224 3
2044 -2 2234 62 526 177 873 724 805 1269 -36 281 -149 514 -345 712 -178 178
-410 299 -641 334 -44 7 -90 14 -102 16 l-23 4 -2 1048 -3 1047 -32 67 c-44
93 -100 151 -191 196 l-76 37 -1823 3 -1824 2 -24 -24z m3239 -150 c18 -8 46
-31 62 -52 l29 -37 5 -250 c5 -247 5 -249 29 -268 21 -17 42 -19 237 -19 l214
0 0 -800 0 -799 -37 -6 c-200 -31 -294 -59 -436 -133 -317 -162 -546 -465
-623 -822 -23 -106 -26 -352 -5 -455 62 -315 250 -605 501 -771 38 -26 70 -49
70 -50 0 -2 -709 -4 -1575 -4 l-1575 0 0 2240 0 2240 1535 0 c1290 0 1541 -2
1569 -14z m410 2 c55 -16 138 -99 154 -154 7 -24 12 -100 12 -178 l0 -136
-160 0 -160 0 0 178 c0 169 -5 214 -35 285 -6 15 0 17 70 17 43 0 96 -5 119
-12z m166 -2443 c0 -67 29 -105 80 -105 51 0 80 38 80 104 l0 54 43 -5 c169
-19 394 -111 517 -213 l34 -28 -37 -41 c-45 -50 -49 -90 -12 -126 35 -36 76
-33 124 10 21 19 41 35 44 35 12 0 96 -128 135 -205 45 -91 87 -216 97 -290 3
-27 8 -60 11 -72 4 -22 1 -23 -51 -23 -46 0 -60 -4 -80 -25 -33 -32 -33 -78 0
-110 20 -21 34 -25 80 -25 49 0 56 -2 51 -17 -2 -10 -8 -43 -11 -73 -19 -146
-107 -345 -214 -480 l-19 -24 -41 37 c-50 45 -90 49 -126 12 -36 -35 -33 -76
10 -124 19 -21 35 -41 35 -44 0 -12 -128 -96 -205 -135 -91 -45 -216 -87 -290
-97 -27 -3 -60 -8 -72 -11 -22 -4 -23 -1 -23 51 0 46 -4 60 -25 80 -15 16 -36
25 -55 25 -19 0 -40 -9 -55 -25 -21 -20 -25 -34 -25 -80 0 -52 -1 -55 -22 -51
-13 3 -45 8 -73 11 -74 10 -199 52 -290 97 -76 38 -205 123 -205 135 0 3 16
23 35 44 43 48 46 89 10 124 -35 36 -76 33 -124 -10 -21 -19 -41 -35 -44 -35
-12 0 -97 129 -135 205 -45 91 -87 216 -97 290 -3 28 -8 60 -11 73 -4 21 -1
22 51 22 46 0 60 4 80 25 33 32 33 78 0 110 -20 21 -34 25 -80 25 -52 0 -55 1
-51 23 3 12 8 45 11 72 10 74 52 199 97 290 38 76 123 205 135 205 3 0 23 -16
44 -35 48 -43 89 -46 124 -10 36 35 33 76 -10 124 -19 21 -35 41 -35 44 0 12
129 97 205 135 92 46 223 89 310 101 33 5 63 9 68 10 4 0 7 -24 7 -54z"/>
<path d="M505 4455 c-16 -15 -25 -36 -25 -55 0 -19 9 -40 25 -55 l24 -25 431
0 431 0 24 25 c16 15 25 36 25 55 0 19 -9 40 -25 55 l-24 25 -431 0 -431 0
-24 -25z"/>
<path d="M505 4135 c-16 -15 -25 -36 -25 -55 0 -19 9 -40 25 -55 l24 -25 671
0 671 0 24 25 c33 32 33 78 0 110 l-24 25 -671 0 -671 0 -24 -25z"/>
<path d="M505 3655 l-25 -24 0 -351 0 -351 25 -24 24 -25 351 0 351 0 24 25
25 24 0 351 0 351 -25 24 -24 25 -351 0 -351 0 -24 -25z m495 -138 c0 -1 -81
-83 -180 -182 l-180 -180 0 183 0 182 180 0 c99 0 180 -1 180 -3z m120 -297
l0 -180 -182 0 -183 0 180 180 c99 99 181 180 182 180 2 0 3 -81 3 -180z"/>
<path d="M1465 3655 c-16 -15 -25 -36 -25 -55 0 -19 9 -40 25 -55 l24 -25 991
0 991 0 24 25 c16 15 25 36 25 55 0 19 -9 40 -25 55 l-24 25 -991 0 -991 0
-24 -25z"/>
<path d="M1465 3335 c-16 -15 -25 -36 -25 -55 0 -19 9 -40 25 -55 l24 -25 991
0 991 0 24 25 c16 15 25 36 25 55 0 19 -9 40 -25 55 l-24 25 -991 0 -991 0
-24 -25z"/>
<path d="M1465 3015 c-16 -15 -25 -36 -25 -55 0 -19 9 -40 25 -55 l24 -25 591
0 591 0 24 25 c16 15 25 36 25 55 0 19 -9 40 -25 55 l-24 25 -591 0 -591 0
-24 -25z"/>
<path d="M505 2535 l-25 -24 0 -351 0 -351 25 -24 24 -25 351 0 351 0 24 25
25 24 0 351 0 351 -25 24 -24 25 -351 0 -351 0 -24 -25z m495 -138 c0 -1 -81
-83 -180 -182 l-180 -180 0 183 0 182 180 0 c99 0 180 -1 180 -3z m120 -297
l0 -180 -182 0 -183 0 180 180 c99 99 181 180 182 180 2 0 3 -81 3 -180z"/>
<path d="M1465 2535 c-16 -15 -25 -36 -25 -55 0 -19 9 -40 25 -55 l24 -25 711
0 711 0 24 25 c16 15 25 36 25 55 0 19 -9 40 -25 55 l-24 25 -711 0 -711 0
-24 -25z"/>
<path d="M1465 2215 c-16 -15 -25 -36 -25 -55 0 -19 9 -40 25 -55 l24 -25 511
0 511 0 24 25 c16 15 25 36 25 55 0 19 -9 40 -25 55 l-24 25 -511 0 -511 0
-24 -25z"/>
<path d="M1465 1895 c-16 -15 -25 -36 -25 -55 0 -19 9 -40 25 -55 l24 -25 351
0 351 0 24 25 c16 15 25 36 25 55 0 19 -9 40 -25 55 l-24 25 -351 0 -351 0
-24 -25z"/>
<path d="M505 1415 l-25 -24 0 -351 0 -351 25 -24 24 -25 351 0 351 0 24 25
25 24 0 351 0 351 -25 24 -24 25 -351 0 -351 0 -24 -25z m615 -375 l0 -240
-240 0 -240 0 0 240 0 240 240 0 240 0 0 -240z"/>
<path d="M1465 1415 c-16 -15 -25 -36 -25 -55 0 -19 9 -40 25 -55 l24 -25 431
0 431 0 24 25 c16 15 25 36 25 55 0 19 -9 40 -25 55 l-24 25 -431 0 -431 0
-24 -25z"/>
<path d="M1465 1095 c-16 -15 -25 -36 -25 -55 0 -19 9 -40 25 -55 l24 -25 431
0 431 0 24 25 c16 15 25 36 25 55 0 19 -9 40 -25 55 l-24 25 -431 0 -431 0
-24 -25z"/>
<path d="M1465 775 c-16 -15 -25 -36 -25 -55 0 -19 9 -40 25 -55 l24 -25 231
0 231 0 24 25 c16 15 25 36 25 55 0 19 -9 40 -25 55 l-24 25 -231 0 -231 0
-24 -25z"/>
<path d="M3865 1895 l-25 -24 0 -271 0 -271 25 -24 24 -25 351 0 351 0 24 25
c33 32 33 78 0 110 l-24 25 -296 0 -295 0 0 215 c0 216 0 216 -25 240 -15 16
-36 25 -55 25 -19 0 -40 -9 -55 -25z"/>
</g>
</svg>
