<?xml version="1.0" standalone="no"?>
<!DOCTYPE svg PUBLIC "-//W3C//DTD SVG 20010904//EN"
 "http://www.w3.org/TR/2001/REC-SVG-20010904/DTD/svg10.dtd">
<svg version="1.0" xmlns="http://www.w3.org/2000/svg"
 width="512.000000pt" height="512.000000pt" viewBox="0 0 512.000000 512.000000"
 preserveAspectRatio="xMidYMid meet">

<g transform="translate(0.000000,512.000000) scale(0.100000,-0.100000)"
fill="#fff" stroke="none">
<path d="M2456 4885 c-254 -248 -655 -404 -1130 -440 -75 -6 -93 -11 -112 -31
l-24 -23 0 -489 c0 -522 6 -631 46 -812 73 -326 232 -608 527 -933 l79 -87
-721 0 c-710 0 -721 0 -777 -21 -68 -26 -136 -89 -167 -157 -22 -47 -22 -49
-22 -777 l0 -730 28 -57 c30 -61 74 -105 140 -140 42 -23 45 -23 543 -26 l502
-3 21 27 c28 35 27 69 -4 99 l-24 25 -472 0 c-466 0 -472 0 -510 22 -25 14
-46 37 -59 63 -20 41 -20 57 -18 733 3 683 3 691 24 719 11 15 36 38 54 50
l33 23 2147 0 2147 0 33 -22 c18 -13 43 -36 54 -51 21 -28 21 -34 21 -737 0
-700 0 -709 -21 -736 -11 -15 -33 -37 -48 -48 -27 -21 -30 -21 -1554 -24
l-1526 -2 -23 -22 c-33 -31 -31 -80 4 -107 l26 -21 1536 2 1536 3 49 24 c63
31 116 84 147 147 l24 49 0 735 c0 734 0 735 -22 782 -30 66 -102 132 -169
157 -54 21 -66 21 -1378 21 l-1322 0 -113 102 c-98 89 -256 262 -281 309 -13
23 76 156 164 247 79 82 160 143 253 192 l62 32 43 -30 c115 -78 223 -113 356
-113 137 0 237 29 346 102 l59 39 43 -20 c140 -68 294 -206 385 -344 43 -65
56 -93 49 -105 -4 -9 -38 -52 -74 -95 -36 -43 -66 -85 -66 -93 0 -29 31 -73
56 -79 39 -10 67 8 130 83 238 286 395 659 433 1032 6 57 11 317 11 582 l0
478 -22 25 c-21 23 -34 26 -153 36 -433 37 -830 196 -1086 435 -105 99 -113
99 -213 0z m160 -155 c232 -212 639 -375 1047 -421 l108 -12 -4 -506 c-4 -546
-6 -565 -67 -772 -27 -93 -103 -280 -136 -337 l-25 -43 -49 69 c-101 143 -244
266 -410 351 -121 63 -151 65 -211 15 -84 -70 -203 -114 -309 -114 -107 0
-234 47 -308 115 -60 54 -74 53 -198 -9 -60 -30 -138 -78 -174 -105 -80 -60
-215 -199 -263 -270 l-35 -53 -16 23 c-63 97 -150 337 -187 515 -22 103 -23
136 -27 615 l-3 505 138 17 c156 20 335 61 468 107 199 70 422 197 545 309 30
27 57 50 59 51 2 0 28 -22 57 -50z"/>
<path d="M2431 4274 c-139 -37 -256 -135 -323 -272 -39 -77 -42 -89 -46 -186
-4 -86 -1 -116 16 -173 42 -137 138 -247 267 -309 332 -158 715 83 715 450 0
142 -48 260 -146 359 -123 124 -315 176 -483 131z m285 -164 c70 -34 129 -94
165 -168 20 -40 24 -63 24 -147 0 -84 -4 -107 -23 -147 -37 -74 -96 -134 -170
-170 -59 -30 -76 -33 -152 -33 -76 0 -93 3 -152 33 -74 36 -133 96 -170 170
-19 40 -23 63 -23 147 0 84 4 108 23 146 90 184 298 258 478 169z"/>
<path d="M3893 1776 c-180 -59 -283 -217 -283 -437 0 -51 -2 -57 -23 -63 -32
-8 -92 -68 -120 -119 -21 -40 -22 -52 -22 -287 0 -277 3 -290 83 -362 68 -62
78 -63 477 -63 l360 0 50 27 c59 31 84 57 116 118 23 44 24 52 24 280 l0 235
-27 51 c-27 52 -68 93 -118 119 -28 14 -28 15 -32 132 -3 98 -8 126 -27 166
-37 74 -104 142 -178 179 -56 27 -78 32 -152 35 -54 2 -102 -2 -128 -11z m213
-160 c93 -43 149 -144 142 -258 l-3 -53 -239 -3 -239 -2 5 83 c6 93 26 143 80
194 69 67 164 81 254 39z m280 -494 c40 -32 44 -54 44 -240 0 -198 -8 -237
-57 -269 -25 -16 -59 -18 -364 -18 l-338 0 -30 29 -31 30 0 212 0 212 26 31
26 31 351 0 c318 0 354 -2 373 -18z"/>
<path d="M1762 1467 c-19 -20 -22 -35 -22 -116 l0 -93 -75 41 c-41 23 -87 41
-103 41 -62 0 -96 -85 -49 -127 12 -11 51 -36 86 -56 l64 -35 -54 -29 c-110
-58 -148 -124 -99 -173 31 -31 79 -25 157 19 l68 39 5 -94 c6 -108 18 -128 76
-128 59 0 74 28 74 135 0 49 2 89 5 89 3 0 39 -18 79 -40 85 -46 108 -49 141
-15 49 48 26 104 -58 146 -97 50 -97 47 -20 90 106 59 129 104 78 154 -34 35
-64 31 -150 -16 l-75 -41 0 90 c0 75 -3 93 -21 116 -27 34 -77 36 -107 3z"/>
<path d="M2650 1470 c-17 -17 -20 -33 -20 -115 0 -52 -2 -95 -4 -95 -2 0 -36
18 -75 40 -39 22 -83 40 -99 40 -63 0 -96 -85 -49 -127 12 -11 51 -36 86 -55
l63 -36 -67 -37 c-37 -21 -75 -47 -86 -58 -25 -27 -25 -81 1 -107 30 -30 75
-25 157 20 l73 41 0 -95 c0 -91 1 -95 27 -116 20 -16 36 -20 58 -16 51 11 60
28 63 131 2 52 5 95 7 95 2 0 37 -18 77 -40 86 -47 106 -49 142 -14 50 51 26
100 -73 153 -33 17 -62 35 -65 40 -3 4 26 24 63 44 83 45 95 58 95 104 0 41
-31 73 -71 73 -14 0 -59 -18 -99 -41 l-74 -40 0 91 c0 83 -2 93 -25 115 -30
31 -77 33 -105 5z"/>
<path d="M884 1472 c-24 -16 -34 -55 -34 -137 l0 -87 -32 20 c-18 11 -56 32
-85 47 -47 24 -55 25 -80 13 -15 -7 -34 -25 -42 -40 -26 -46 -7 -77 77 -125
41 -22 76 -43 79 -46 2 -3 -29 -24 -69 -46 -97 -53 -118 -93 -77 -145 30 -38
74 -35 159 13 l70 40 0 -88 c0 -108 15 -135 75 -135 60 0 75 27 75 135 0 49 3
89 6 89 4 0 39 -18 79 -40 40 -22 82 -40 94 -40 29 0 71 43 71 74 0 44 -11 56
-92 103 l-79 46 73 39 c40 22 79 47 86 56 33 42 -6 112 -63 112 -15 0 -61 -18
-102 -40 l-73 -41 0 96 c0 82 -3 98 -20 115 -20 20 -74 27 -96 12z"/>
</g>
</svg>
