<?xml version="1.0" standalone="no"?>
<!DOCTYPE svg PUBLIC "-//W3C//DTD SVG 20010904//EN"
 "http://www.w3.org/TR/2001/REC-SVG-20010904/DTD/svg10.dtd">
<svg version="1.0" xmlns="http://www.w3.org/2000/svg"
 width="512.000000pt" height="512.000000pt" viewBox="0 0 512.000000 512.000000"
 preserveAspectRatio="xMidYMid meet">

<g transform="translate(0.000000,512.000000) scale(0.100000,-0.100000)"
fill="#fff" stroke="none">
<path d="M2388 5026 c-97 -17 -107 -29 -110 -139 l-3 -90 -94 -38 -95 -38 -63
60 c-82 76 -103 77 -194 9 -74 -56 -190 -174 -237 -243 -48 -68 -44 -94 27
-170 l60 -63 -38 -95 -38 -94 -91 -3 c-83 -2 -93 -5 -110 -27 -53 -67 -55
-433 -3 -505 16 -23 26 -25 111 -30 l93 -5 38 -94 38 -95 -60 -63 c-71 -76
-75 -102 -27 -170 47 -69 163 -187 237 -243 91 -69 112 -67 194 10 l64 59 94
-38 94 -38 3 -91 c2 -83 5 -93 27 -110 69 -54 441 -54 510 0 22 17 25 27 27
110 l3 91 94 38 94 38 64 -59 c82 -77 103 -79 194 -10 74 56 190 174 237 243
48 68 44 94 -28 170 l-59 64 38 94 38 94 93 5 c85 5 95 7 111 30 20 28 39 147
39 250 0 103 -19 222 -39 250 -16 23 -26 25 -111 30 l-93 5 -38 94 -38 94 59
64 c77 82 79 103 10 194 -56 74 -174 190 -243 237 -68 48 -94 44 -170 -28
l-64 -59 -94 38 -94 38 -3 91 c-2 83 -5 93 -27 110 -49 39 -283 54 -427 28z
m268 -152 c17 -5 22 -16 27 -59 9 -88 56 -153 127 -176 19 -7 69 -27 112 -45
42 -19 91 -34 110 -34 42 1 106 30 137 64 14 14 30 26 36 26 14 0 165 -151
165 -165 0 -6 -12 -22 -26 -36 -34 -31 -63 -95 -64 -137 0 -19 15 -68 34 -110
18 -43 38 -93 45 -112 23 -71 88 -118 176 -127 63 -7 65 -11 65 -123 0 -113
-2 -116 -66 -123 -68 -7 -135 -45 -157 -89 -43 -88 -97 -231 -97 -260 1 -42
30 -106 64 -137 14 -14 26 -30 26 -36 0 -14 -151 -165 -165 -165 -6 0 -22 12
-36 26 -31 34 -95 63 -137 64 -19 0 -68 -15 -110 -34 -43 -18 -93 -38 -112
-45 -71 -23 -118 -88 -127 -176 -7 -63 -11 -65 -123 -65 -113 0 -116 2 -123
66 -7 68 -45 135 -89 157 -88 43 -231 97 -260 97 -42 -1 -106 -30 -137 -64
-14 -14 -30 -26 -36 -26 -14 0 -165 151 -165 165 0 6 12 22 26 36 34 31 63 95
64 137 0 19 -15 68 -34 110 -18 43 -38 93 -45 112 -23 71 -88 118 -176 127
-63 7 -65 11 -65 123 0 112 2 116 65 123 88 9 153 56 176 127 7 19 27 69 45
112 19 42 34 91 34 110 -1 42 -30 106 -64 137 -14 14 -26 30 -26 36 0 14 151
165 165 165 6 0 22 -12 36 -26 31 -34 95 -63 137 -64 29 0 172 54 260 97 44
22 82 89 89 157 4 39 10 56 22 59 25 7 173 7 197 1z"/>
<path d="M2435 4550 c-145 -27 -270 -94 -381 -204 -90 -90 -143 -175 -182
-294 -32 -99 -37 -289 -9 -392 28 -105 92 -222 166 -302 233 -252 588 -308
891 -141 79 44 211 175 259 255 138 237 131 532 -18 760 -93 143 -256 262
-416 304 -73 19 -241 26 -310 14z m306 -182 c95 -35 148 -69 217 -138 108
-109 157 -230 157 -390 0 -160 -51 -285 -161 -394 -109 -110 -234 -161 -394
-161 -160 0 -285 51 -394 161 -110 109 -161 234 -161 394 0 162 51 285 163
397 69 69 187 134 277 152 81 16 220 6 296 -21z"/>
<path d="M2318 4146 c-152 -56 -199 -205 -117 -371 59 -120 289 -335 359 -335
70 0 299 214 359 334 74 150 41 294 -82 358 -60 32 -165 31 -229 0 l-48 -24
-47 23 c-57 28 -144 34 -195 15z m163 -196 c37 -39 55 -50 79 -50 24 0 42 11
79 50 39 40 55 50 82 50 43 0 79 -34 79 -75 0 -68 -94 -196 -206 -282 -40 -30
-43 -29 -151 78 -76 74 -123 152 -123 203 0 42 35 76 78 76 28 0 43 -9 83 -50z"/>
<path d="M2000 2600 l0 -120 80 0 80 0 0 120 0 120 -80 0 -80 0 0 -120z"/>
<path d="M2960 2600 l0 -120 80 0 80 0 0 120 0 120 -80 0 -80 0 0 -120z"/>
<path d="M1350 2564 c-212 -41 -396 -76 -410 -79 -28 -7 -503 -474 -526 -517
-42 -79 -9 -105 191 -152 88 -21 168 -40 178 -42 16 -5 17 -41 17 -584 0 -535
1 -579 18 -599 13 -17 200 -74 881 -268 l863 -246 857 244 c653 186 861 249
879 266 l22 22 0 580 0 579 177 43 c219 52 251 76 209 157 -20 37 -496 508
-521 515 -24 7 -749 144 -785 149 -24 3 -26 -1 -39 -70 -7 -40 -11 -75 -9 -78
3 -2 89 -21 192 -41 103 -19 186 -37 184 -38 -2 -2 -265 -55 -585 -120 l-583
-116 -582 116 c-321 65 -584 118 -586 120 -1 1 81 18 184 38 102 20 189 38
191 41 7 6 -17 145 -25 150 -4 2 -180 -30 -392 -70z m355 -386 c391 -77 712
-142 713 -144 5 -3 -288 -414 -295 -414 -3 0 -1384 327 -1462 347 -21 5 -6 23
150 179 96 96 176 174 179 174 3 0 325 -64 715 -142z m2604 -32 l173 -173 -44
-11 c-100 -25 -1435 -342 -1440 -342 -7 0 -301 411 -296 414 3 2 1407 283
1423 285 6 1 88 -77 184 -173z m-1833 -1873 c-2 -3 -1370 383 -1498 423 -17 5
-18 39 -18 521 l0 515 28 -7 c221 -56 1159 -275 1178 -275 34 0 51 19 189 214
l120 168 3 -777 c1 -428 0 -780 -2 -782z m308 1366 c69 -97 133 -179 142 -183
8 -3 25 -6 35 -6 16 0 1109 256 1182 276 16 5 17 -24 17 -510 l0 -515 -67 -20
c-115 -34 -1396 -399 -1425 -406 l-28 -7 0 783 c0 455 4 779 9 774 5 -6 65
-89 135 -186z"/>
<path d="M2480 2400 l0 -80 80 0 80 0 0 80 0 80 -80 0 -80 0 0 -80z"/>
</g>
</svg>
