<?xml version="1.0" standalone="no"?>
<!DOCTYPE svg PUBLIC "-//W3C//DTD SVG 20010904//EN"
 "http://www.w3.org/TR/2001/REC-SVG-20010904/DTD/svg10.dtd">
<svg version="1.0" xmlns="http://www.w3.org/2000/svg"
 width="512.000000pt" height="512.000000pt" viewBox="0 0 512.000000 512.000000"
 preserveAspectRatio="xMidYMid meet">

<g transform="translate(0.000000,512.000000) scale(0.100000,-0.100000)"
fill="#fff" stroke="none">
<path d="M2045 5033 c-125 -17 -292 -91 -392 -173 -86 -70 -156 -159 -208
-265 -66 -132 -80 -195 -80 -355 0 -160 14 -223 80 -355 81 -164 195 -278 361
-361 199 -99 427 -110 637 -30 l68 25 112 -76 c145 -98 192 -123 236 -123 45
0 74 19 91 60 17 41 4 90 -72 264 l-60 139 22 36 c36 61 70 140 92 219 29 101
31 294 4 392 -56 202 -174 369 -342 481 -145 97 -369 147 -549 122z m260 -175
c69 -15 180 -67 243 -115 220 -167 308 -470 212 -727 -11 -29 -38 -82 -60
-119 -52 -86 -52 -120 -1 -243 22 -52 35 -91 28 -87 -7 4 -45 28 -85 55 -84
54 -131 67 -176 48 -121 -50 -174 -63 -281 -68 -193 -8 -334 47 -471 183 -136
134 -202 302 -191 486 6 91 41 215 80 279 150 251 419 369 702 308z"/>
<path d="M1818 4506 c-116 -31 -195 -149 -138 -206 34 -34 87 -27 132 17 26
26 46 36 68 36 22 0 42 -10 68 -36 88 -86 195 -12 132 90 -28 46 -93 90 -151
102 -59 13 -51 13 -111 -3z"/>
<path d="M2390 4509 c-118 -23 -209 -150 -150 -209 34 -34 87 -27 132 17 26
26 46 36 68 36 22 0 42 -10 68 -36 88 -86 195 -12 132 90 -26 43 -94 91 -139
99 -20 3 -43 7 -51 9 -8 1 -35 -1 -60 -6z"/>
<path d="M1843 4145 c-34 -24 -36 -59 -9 -112 24 -48 88 -115 137 -145 42 -26
129 -48 189 -48 60 0 147 22 189 48 85 52 168 168 155 217 -8 32 -40 55 -77
55 -28 0 -39 -9 -112 -90 -82 -92 -228 -92 -310 0 -73 81 -84 90 -112 90 -16
0 -38 -7 -50 -15z"/>
<path d="M3913 5026 c-179 -44 -324 -184 -377 -365 -9 -32 -16 -91 -16 -141 0
-147 44 -254 146 -361 l64 -66 -57 -12 c-93 -20 -215 -84 -278 -145 -74 -73
-105 -142 -209 -467 -111 -345 -137 -446 -143 -549 -4 -75 -2 -90 19 -130 40
-78 128 -105 213 -65 45 22 136 111 205 201 l52 69 -6 -50 c-25 -203 -63 -761
-72 -1055 -7 -232 6 -441 32 -529 30 -103 126 -168 235 -158 96 8 163 56 210
149 30 59 89 262 89 306 0 46 17 20 29 -45 19 -105 69 -247 104 -299 90 -133
281 -148 385 -30 37 42 48 81 62 207 21 198 11 557 -31 1079 -11 140 -22 291
-26 335 l-6 80 50 -65 c82 -106 182 -195 237 -209 79 -20 147 12 185 86 21 42
13 174 -19 300 -44 168 -207 658 -242 724 -69 133 -206 224 -390 263 l-27 6
51 48 c221 205 228 541 15 753 -123 123 -314 176 -484 135z m269 -179 c75 -35
129 -86 169 -159 33 -60 34 -67 34 -168 0 -101 -1 -108 -34 -168 -40 -74 -93
-124 -171 -161 -47 -22 -69 -26 -145 -26 -76 0 -98 4 -145 26 -78 37 -131 87
-171 161 -33 60 -34 67 -34 168 0 101 1 108 34 168 50 92 133 158 228 182 63
16 176 5 235 -23z m173 -921 c129 -36 229 -105 268 -187 42 -91 233 -732 243
-818 7 -63 7 -63 -15 -52 -42 23 -183 218 -346 477 -35 56 -70 72 -112 52 -48
-23 -49 -43 -19 -360 61 -660 92 -1183 84 -1445 -6 -180 -14 -207 -72 -228
-37 -13 -92 18 -116 65 -48 96 -123 533 -145 850 -8 112 -20 156 -45 170 -30
16 -78 12 -99 -9 -23 -23 -25 -32 -46 -256 -28 -309 -80 -608 -127 -732 -32
-87 -109 -121 -157 -69 -18 19 -24 43 -33 122 -21 205 23 1004 92 1654 20 193
17 214 -33 238 -53 26 -74 8 -172 -149 -131 -209 -263 -379 -293 -379 -20 0
-13 64 22 202 48 185 203 653 231 698 54 85 167 147 310 169 99 16 509 6 580
-13z"/>
<path d="M1805 2868 c-34 -19 -305 -230 -585 -454 -395 -316 -500 -416 -500
-474 0 -41 48 -97 153 -180 l95 -74 -102 -81 c-56 -44 -258 -203 -449 -354
-222 -176 -350 -283 -353 -297 -12 -49 29 -104 77 -104 16 0 46 14 71 33 44
34 629 495 1003 791 116 91 226 173 245 183 57 28 157 29 219 3 66 -29 126
-96 146 -163 18 -60 19 -88 4 -142 -6 -22 -177 -342 -380 -711 -227 -413 -369
-682 -369 -698 0 -60 83 -98 128 -58 11 9 147 249 302 532 155 283 283 516
285 518 1 2 66 -33 144 -76 210 -118 272 -132 315 -70 9 13 112 183 229 378
219 366 479 785 529 854 42 59 39 111 -9 158 -117 112 -464 267 -1018 454
-139 47 -150 49 -180 32z m227 -219 c359 -126 801 -313 822 -347 3 -6 -55
-109 -130 -229 -75 -120 -231 -375 -347 -568 -116 -192 -214 -354 -218 -359
-6 -6 -23 -3 -46 8 -55 25 -233 126 -233 132 0 2 22 48 50 102 61 121 78 201
62 298 -43 262 -297 414 -556 334 -64 -20 -117 -55 -277 -184 l-56 -46 -70 53
c-38 28 -83 63 -99 76 l-29 23 50 45 c117 105 888 723 902 723 1 0 80 -27 175
-61z"/>
</g>
</svg>
