<?xml version="1.0" standalone="no"?>
<!DOCTYPE svg PUBLIC "-//W3C//DTD SVG 20010904//EN"
 "http://www.w3.org/TR/2001/REC-SVG-20010904/DTD/svg10.dtd">
<svg version="1.0" xmlns="http://www.w3.org/2000/svg"
 width="512.000000pt" height="512.000000pt" viewBox="0 0 512.000000 512.000000"
 preserveAspectRatio="xMidYMid meet">

<g transform="translate(0.000000,512.000000) scale(0.100000,-0.100000)"
fill="#fff" stroke="none">
<path d="M1357 5109 c-102 -24 -207 -113 -253 -212 l-29 -62 0 -1840 0 -1840
28 -60 c37 -79 114 -156 191 -192 l61 -28 657 -3 657 -3 21 -46 c11 -25 36
-68 55 -94 l35 -49 0 -340 0 -340 635 0 635 0 0 1073 0 1074 -22 41 c-13 23
-142 173 -288 332 l-265 290 -5 1018 -5 1017 -28 57 c-38 77 -107 144 -187
182 l-65 31 -895 2 c-502 1 -912 -3 -933 -8z m1835 -105 c25 -8 64 -31 86 -50
40 -34 92 -122 92 -156 0 -17 -47 -18 -1100 -18 -621 0 -1100 4 -1100 9 0 22
32 95 56 126 28 36 77 72 129 92 22 8 262 12 911 12 771 1 886 -1 926 -15z
m183 -719 l0 -400 -137 -3 -138 -3 0 211 0 210 -325 0 -325 0 0 -45 0 -45 280
0 280 0 0 -165 0 -166 -82 3 -83 3 -3 78 -3 77 -182 -2 -182 -3 -3 -77 -3 -78
-29 0 c-27 0 -30 3 -30 31 0 29 -1 30 -42 27 -39 -3 -43 -6 -46 -30 l-3 -28
-115 0 -114 0 0 80 0 80 -185 0 -185 0 0 -80 0 -80 -85 0 -85 0 0 165 0 165
285 0 285 0 0 45 0 45 -327 -2 -328 -3 -3 -207 -2 -208 -145 0 -145 0 0 405 0
405 1103 -2 1102 -3 0 -400z m-1367 -367 l-3 -33 -100 0 -100 0 -3 33 -3 32
106 0 106 0 -3 -32z m752 -3 l0 -35 -100 0 -100 0 0 35 0 35 100 0 100 0 0
-35z m-1300 -195 l0 -70 45 0 45 0 0 70 0 70 85 0 85 0 0 -60 0 -60 185 0 185
0 0 60 0 60 115 0 115 0 0 -25 c0 -22 -4 -25 -40 -25 l-40 0 0 -45 0 -45 -40
0 c-36 0 -40 -2 -40 -25 0 -22 4 -25 40 -25 l40 0 0 -40 0 -40 40 0 40 0 0 65
0 65 45 0 45 0 0 70 0 70 30 0 30 0 0 -60 0 -60 185 0 184 0 3 58 3 57 83 3
82 3 0 -71 0 -70 45 0 45 0 0 70 0 70 135 0 c99 0 137 -3 140 -12 3 -7 4 -384
3 -838 l-3 -825 -129 150 c-173 202 -206 222 -336 213 -146 -11 -253 -150
-221 -291 10 -46 40 -93 189 -302 160 -222 177 -251 174 -281 l-4 -34 -939 0
-939 0 0 1110 0 1110 145 0 145 0 0 -70z m548 48 c3 -16 -7 -18 -102 -18 -82
0 -106 3 -106 13 0 25 13 28 109 25 82 -3 96 -6 99 -20z m752 2 c0 -19 -7 -20
-100 -20 -93 0 -100 1 -100 20 0 19 7 20 100 20 93 0 100 -1 100 -20z m927
-1337 c114 -126 220 -243 236 -261 l27 -34 0 -784 0 -784 -537 2 -538 3 -5 75
c-4 67 -9 81 -47 139 -24 35 -43 68 -43 72 0 4 97 9 216 11 l216 3 45 -43 c51
-50 127 -100 195 -130 l47 -20 17 44 c9 24 15 45 13 47 -2 1 -35 18 -74 37
-101 51 -189 142 -242 250 -67 136 -76 187 -70 385 3 94 8 179 12 190 5 16
-36 80 -174 272 -99 139 -185 261 -190 272 -17 31 -13 93 9 128 23 38 57 62
105 73 33 8 99 -1 113 -15 3 -3 -15 -24 -41 -46 -48 -41 -59 -73 -35 -97 21
-21 52 -13 102 28 40 33 52 39 62 28 6 -7 99 -114 204 -238 142 -166 204 -231
235 -247 60 -31 136 -111 165 -173 26 -55 28 -55 95 -30 l25 10 -31 62 c-37
74 -126 170 -192 208 -26 15 -68 51 -92 79 l-45 53 0 329 c0 181 2 329 4 329
3 0 98 -102 213 -227z m-644 -1085 c5 -133 25 -215 78 -320 l28 -58 -883 0
-883 0 -61 31 c-120 60 -152 128 -152 330 l0 139 934 0 933 0 6 -122z m915
-1060 l2 -188 -545 0 -545 0 0 183 c0 101 3 187 7 190 3 4 248 6 542 5 l536
-3 3 -187z"/>
<path d="M2160 4010 l0 -40 40 0 40 0 0 40 0 40 -40 0 -40 0 0 -40z"/>
<path d="M1620 3560 l0 -40 40 0 40 0 0 40 0 40 -40 0 -40 0 0 -40z"/>
<path d="M1908 3563 c-3 -37 -4 -38 -45 -41 -43 -3 -43 -3 -43 -43 0 -39 0
-39 -40 -39 l-40 0 0 -40 0 -40 40 0 40 0 0 40 0 40 40 0 40 0 0 -45 0 -45 45
0 45 0 0 45 0 45 40 0 40 0 0 -45 0 -45 45 0 45 0 0 -80 0 -80 40 0 40 0 0
-85 0 -85 -40 0 -40 0 0 -40 0 -40 40 0 40 0 0 40 0 40 40 0 40 0 0 -40 0 -40
45 0 45 0 0 125 0 125 -46 0 -45 0 3 38 c3 36 4 37 46 40 l42 3 0 80 0 79 40
0 40 0 0 45 0 45 40 0 40 0 0 40 0 40 -40 0 -40 0 0 -40 0 -40 -85 0 -85 0 0
-85 0 -85 -80 0 -80 0 0 45 0 45 40 0 40 0 0 40 0 40 -125 0 -125 0 0 40 c0
40 0 40 -39 40 -39 0 -40 -1 -43 -37z"/>
<path d="M2830 3560 l0 -39 -127 -3 -128 -3 0 -35 c0 -34 1 -35 43 -38 l42 -3
0 -45 0 -44 40 0 c40 0 40 0 40 39 0 40 0 40 43 43 42 3 42 3 45 46 3 42 3 42
43 42 39 0 39 0 39 40 l0 40 -40 0 c-40 0 -40 0 -40 -40z"/>
<path d="M1460 2975 l0 -325 325 0 325 0 0 40 0 40 -280 0 -280 0 0 285 0 285
-45 0 -45 0 0 -325z"/>
<path d="M3010 3020 l0 -280 -285 0 -285 0 0 -45 0 -45 328 2 327 3 3 323 2
322 -45 0 -45 0 0 -280z"/>
<path d="M1720 3095 l0 -185 185 0 185 0 0 185 0 185 -185 0 -185 0 0 -185z
m288 3 l3 -98 -106 0 -105 0 0 100 0 101 103 -3 102 -3 3 -97z"/>
<path d="M2472 3098 l3 -183 183 -3 182 -2 0 185 0 185 -185 0 -185 0 2 -182z
m288 2 l0 -100 -100 0 -100 0 0 100 0 100 100 0 100 0 0 -100z"/>
<path d="M2240 2800 l0 -40 40 0 40 0 0 40 0 40 -40 0 -40 0 0 -40z"/>
<path d="M2070 1210 l0 -50 131 0 130 0 -3 48 -3 47 -127 3 -128 3 0 -51z"/>
<path d="M2947 333 c-4 -3 -7 -26 -7 -50 l0 -43 55 0 55 0 0 50 0 50 -48 0
c-27 0 -52 -3 -55 -7z"/>
</g>
</svg>
