<?xml version="1.0" standalone="no"?>
<!DOCTYPE svg PUBLIC "-//W3C//DTD SVG 20010904//EN"
 "http://www.w3.org/TR/2001/REC-SVG-20010904/DTD/svg10.dtd">
<svg version="1.0" xmlns="http://www.w3.org/2000/svg"
 width="512.000000pt" height="512.000000pt" viewBox="0 0 512.000000 512.000000"
 preserveAspectRatio="xMidYMid meet">

<g transform="translate(0.000000,512.000000) scale(0.100000,-0.100000)"
fill="#fff" stroke="none">
<path d="M1922 4947 c-44 -14 -115 -78 -138 -124 -17 -34 -20 -70 -24 -313
l-5 -275 -84 -8 c-204 -18 -410 -79 -601 -178 -160 -83 -286 -175 -415 -304
-256 -256 -411 -560 -477 -935 -19 -109 -16 -411 6 -527 19 -103 63 -260 96
-343 41 -103 130 -265 198 -360 86 -122 261 -296 382 -382 241 -171 533 -280
816 -306 l79 -7 5 -275 c4 -243 7 -279 24 -313 24 -49 95 -110 144 -125 58
-17 2807 -17 2866 0 55 16 138 99 154 154 9 32 12 465 12 1875 l0 1834 -463
462 -462 463 -1040 -1 c-698 -1 -1051 -5 -1073 -12z m1998 -483 c0 -235 4
-349 12 -378 16 -55 99 -138 154 -154 29 -8 143 -12 378 -12 l336 0 0 -1775 0
-1776 -25 -24 -24 -25 -1391 0 -1391 0 -25 25 -24 24 2 258 3 258 85 7 c183
15 401 78 579 168 512 256 855 750 921 1325 17 152 14 202 -15 230 l-24 25
-776 0 -775 0 0 1055 0 1056 25 24 24 25 976 0 975 0 0 -336z m465 -84 l300
-300 -278 0 -278 0 -24 25 -25 24 0 276 c0 151 1 275 3 275 1 0 137 -135 302
-300z m-2625 -1043 l0 -742 -525 -525 -525 -525 -30 35 c-155 180 -276 433
-331 690 -30 139 -33 418 -6 555 65 329 212 603 443 826 250 240 577 392 909
422 22 2 46 4 53 5 9 2 12 -152 12 -741z m1595 -909 c-25 -212 -70 -369 -156
-543 -147 -299 -385 -537 -684 -684 -235 -116 -408 -156 -680 -155 -199 0
-306 17 -479 75 -163 54 -387 181 -495 280 l-34 31 524 524 524 524 743 0 743
0 -6 -52z"/>
<path d="M2105 4535 l-25 -24 0 -831 0 -831 25 -24 24 -25 831 0 831 0 26 26
c26 26 26 27 19 138 -18 315 -108 588 -279 846 -276 416 -719 684 -1219 739
-159 18 -205 15 -233 -14z m325 -162 c277 -45 554 -185 766 -386 279 -264 439
-590 478 -974 l5 -53 -719 0 -720 0 0 720 0 720 48 -6 c26 -3 90 -12 142 -21z"/>
<path d="M4000 3520 l0 -80 320 0 320 0 0 80 0 80 -320 0 -320 0 0 -80z"/>
<path d="M4000 3040 l0 -80 320 0 320 0 0 80 0 80 -320 0 -320 0 0 -80z"/>
<path d="M4000 2560 l0 -80 320 0 320 0 0 80 0 80 -320 0 -320 0 0 -80z"/>
<path d="M3780 1906 c-155 -34 -256 -89 -370 -205 -67 -67 -95 -105 -128 -171
-62 -125 -77 -192 -76 -340 1 -107 5 -137 27 -205 38 -115 90 -199 182 -290
93 -93 160 -135 282 -178 80 -28 100 -31 213 -31 148 -1 216 14 338 76 251
125 409 405 389 689 -13 177 -81 323 -212 454 -139 139 -283 203 -475 210 -67
3 -128 -1 -170 -9z m321 -178 c149 -55 254 -147 319 -282 151 -314 -3 -668
-340 -782 -81 -28 -254 -25 -334 4 -179 65 -301 191 -362 372 -14 40 -19 84
-19 160 0 158 50 282 156 390 80 81 180 136 294 161 70 15 213 3 286 -23z"/>
<path d="M3968 1283 l-208 -208 -88 88 c-48 48 -92 87 -98 87 -13 0 -104 -93
-104 -106 0 -5 58 -67 128 -137 114 -112 133 -127 162 -127 31 0 56 22 282
247 136 136 248 252 248 258 0 13 -92 105 -105 105 -6 0 -103 -93 -217 -207z"/>
</g>
</svg>
